<svg xmlns="http://www.w3.org/2000/svg" viewBox="0 0 212.44 190.76">
  <defs>
    <style>
      .cls-1 {
        fill: #df2134;
      }
    </style>
  </defs>
  <g id="Layer_2" data-name="Layer 2">
    <g id="Layer_1-2" data-name="Layer 1">
      <g>
        <g>
          <path class="cls-1" d="M204.3,106.9,194.24,85.72a3.55,3.55,0,0,0,.15-.72V39.22h6.81a3.46,3.46,0,0,0,2.85-1.47,3.18,3.18,0,0,0,.29-3.1L194.12,11.38a3.41,3.41,0,0,0-3.14-2H76.53L64.64.67a3.53,3.53,0,0,0-4.13,0l-53,38.77a3.21,3.21,0,0,0-.66,4.61,3.5,3.5,0,0,0,4.78.63l8.5-6.22V187.11a3.35,3.35,0,0,0,3.41,3.28H190.14a3.35,3.35,0,0,0,3.41-3.28V111.56h7.65a3.43,3.43,0,0,0,2.87-1.51A3.17,3.17,0,0,0,204.3,106.9ZM187.57,81.71H105V39.22h1l7.47,5.47a3.48,3.48,0,0,0,2.06.66,3.43,3.43,0,0,0,2.72-1.3,3.21,3.21,0,0,0-.66-4.61l-.3-.22h70.24ZM188.72,16l7.34,16.69H108.34L85.52,16ZM27,33.47l35.61-26,10.14,7.41a3.36,3.36,0,0,0,1.05.77L98.19,33.47V81.71H65a3.43,3.43,0,0,0-3.1,1.92l-11,23.27a3.2,3.2,0,0,0,.22,3.15,3.45,3.45,0,0,0,2.87,1.51h7.65v72.26H27Zm90.33,150.35V154.31h18.39v29.51Zm69.45,0H142.5V151a3.35,3.35,0,0,0-3.41-3.29H113.88a3.36,3.36,0,0,0-3.41,3.29v32.8H68.4V111.56H186.74v72.26ZM190.15,105H59.24l7.93-16.69H188L195.89,105Z"/>
          <path class="cls-1" d="M169,146H152.86a5.06,5.06,0,0,1-5.05-5.05V122.84a5.06,5.06,0,0,1,5.05-5H169a5.06,5.06,0,0,1,5.06,5v18.07A5.06,5.06,0,0,1,169,146Zm-15.62-5.58h15.09v-17H153.4Z"/>
          <path class="cls-1" d="M172.53,74.56H156.37a5.07,5.07,0,0,1-5.06-5.06V51.43a5.06,5.06,0,0,1,5.06-5h16.16a5.06,5.06,0,0,1,5.05,5V69.5A5.06,5.06,0,0,1,172.53,74.56ZM156.9,69H172V52H156.9Z"/>
          <path class="cls-1" d="M136.21,74.56H120.05a5.06,5.06,0,0,1-5-5.06V51.43a5.06,5.06,0,0,1,5-5h16.16a5.06,5.06,0,0,1,5.06,5V69.5A5.07,5.07,0,0,1,136.21,74.56ZM120.59,69h15.09V52H120.59Z"/>
          <path class="cls-1" d="M86.61,63.87H70.45a5.06,5.06,0,0,1-5.06-5V40.75a5.07,5.07,0,0,1,5.06-5.06H86.61a5.06,5.06,0,0,1,5,5.06V58.82A5.06,5.06,0,0,1,86.61,63.87ZM71,58.28h15.1v-17H71Z"/>
          <path class="cls-1" d="M54.33,63.87H38.17a5.06,5.06,0,0,1-5.06-5V40.75a5.07,5.07,0,0,1,5.06-5.06H54.33a5.06,5.06,0,0,1,5.05,5.06V58.82A5.06,5.06,0,0,1,54.33,63.87ZM38.7,58.28H53.8v-17H38.7Z"/>
          <path class="cls-1" d="M99.74,146H83.58a5,5,0,0,1-5-5.05V122.84a5,5,0,0,1,5-5H99.74a5.06,5.06,0,0,1,5.06,5v18.07A5.06,5.06,0,0,1,99.74,146Zm-15.63-5.58h15.1v-17H84.11Z"/>
        </g>
        <path class="cls-1" d="M209.64,190.76h0l-206.85-.4a2.8,2.8,0,0,1,0-5.59h0l206.85.4a2.8,2.8,0,0,1,0,5.59Z"/>
      </g>
    </g>
  </g>
</svg>
