<svg xmlns="http://www.w3.org/2000/svg" viewBox="0 0 233.86 145.5">
  <defs>
    <style>
      .cls-1 {
        fill: #df2134;
      }
    </style>
  </defs>
  <g id="Layer_2" data-name="Layer 2">
    <g id="Layer_1-2" data-name="Layer 1">
      <g>
        <path class="cls-1" d="M55.81,87.06H39.91a5,5,0,0,1-5-5V64.31a5,5,0,0,1,5-5h15.9a5,5,0,0,1,5,5V82.09A5,5,0,0,1,55.81,87.06Zm-15.37-5.5H55.29V64.83H40.44Z"/>
        <path class="cls-1" d="M96.05,87.06H80.15a5,5,0,0,1-5-5V64.31a5,5,0,0,1,5-5h15.9a5,5,0,0,1,5,5V82.09A5,5,0,0,1,96.05,87.06Zm-15.37-5.5H95.53V64.83H80.68Z"/>
        <path class="cls-1" d="M148.57,87.06h-15.9a5,5,0,0,1-5-5V64.31a5,5,0,0,1,5-5h15.9a5,5,0,0,1,5,5V82.09A5,5,0,0,1,148.57,87.06Zm-15.38-5.5H148V64.83H133.19Z"/>
        <path class="cls-1" d="M188.81,87.06h-15.9a5,5,0,0,1-5-5V64.31a5,5,0,0,1,5-5h15.9a5,5,0,0,1,5,5V82.09A5,5,0,0,1,188.81,87.06Zm-15.38-5.5h14.85V64.83H173.43Z"/>
        <path class="cls-1" d="M202.08,145.44h-176a8.27,8.27,0,0,1-8.37-8.15l0-98.81h7.21l0,98.81a1.07,1.07,0,0,0,1.16.93h176a1.06,1.06,0,0,0,1.15-.93V37.13h14L190,19.59H85.21V12.37H190.48a5.43,5.43,0,0,1,3,.88l34,21.86.41.58a5.5,5.5,0,0,1-4.51,8.65H210.45v92.95A8.28,8.28,0,0,1,202.08,145.44Z"/>
        <g>
          <path class="cls-1" d="M10,50.72A3.73,3.73,0,0,1,7.77,44L65.28.75a3.73,3.73,0,0,1,4.48,6L12.25,50A3.75,3.75,0,0,1,10,50.72Z"/>
          <path class="cls-1" d="M125.08,50.72a3.75,3.75,0,0,1-2.24-.75L65.33,6.71a3.73,3.73,0,1,1,4.48-6L127.32,44a3.73,3.73,0,0,1-2.24,6.71Z"/>
        </g>
        <path class="cls-1" d="M114.21,145.1a3.26,3.26,0,0,1-3.27-3.27V38.48a3.27,3.27,0,0,1,6.54,0V141.83A3.26,3.26,0,0,1,114.21,145.1Z"/>
        <path class="cls-1" d="M77.93,145.5a3.67,3.67,0,0,1-3.67-3.67v-32.1H59.94v32.1a3.67,3.67,0,1,1-7.34,0V108a5.57,5.57,0,0,1,5.56-5.56H76A5.57,5.57,0,0,1,81.6,108v33.87A3.67,3.67,0,0,1,77.93,145.5Z"/>
        <path class="cls-1" d="M169.12,145.5a3.67,3.67,0,0,1-3.67-3.67v-32.1H151.13v32.1a3.67,3.67,0,1,1-7.34,0V108a5.57,5.57,0,0,1,5.56-5.56h17.88a5.57,5.57,0,0,1,5.56,5.56v33.87A3.67,3.67,0,0,1,169.12,145.5Z"/>
        <path class="cls-1" d="M230.19,145.5H3.67a3.67,3.67,0,0,1,0-7.34H230.19a3.67,3.67,0,0,1,0,7.34Z"/>
        <rect class="cls-1" x="116.93" y="37.13" width="89.91" height="7.21"/>
      </g>
    </g>
  </g>
</svg>
