<svg width="98" height="21" viewBox="0 0 98 21" fill="none" xmlns="http://www.w3.org/2000/svg">
<g clip-path="url(#clip0)">
<path fill-rule="evenodd" clip-rule="evenodd" d="M10.1487 15.773L16.3433 19.5L14.7045 12.471L20.1724 7.744L12.9643 7.127L10.1487 0.5L7.33304 7.127L0.125 7.744L5.59293 12.471L3.95405 19.5L10.1487 15.773Z" fill="#052EA6"/>
</g>
<g clip-path="url(#clip1)">
<path fill-rule="evenodd" clip-rule="evenodd" d="M30.1956 15.773L36.3902 19.5L34.7513 12.471L40.2193 7.744L33.0112 7.127L30.1956 0.5L27.3799 7.127L20.1719 7.744L25.6398 12.471L24.0009 19.5L30.1956 15.773Z" fill="#052EA6"/>
</g>
<g clip-path="url(#clip2)">
<path fill-rule="evenodd" clip-rule="evenodd" d="M49.2405 15.773L55.4351 19.5L53.7963 12.471L59.2642 7.744L52.0561 7.127L49.2405 0.5L46.4248 7.127L39.2168 7.744L44.6847 12.471L43.0458 19.5L49.2405 15.773Z" fill="#052EA6"/>
</g>
<g clip-path="url(#clip3)">
<path fill-rule="evenodd" clip-rule="evenodd" d="M68.2854 15.773L74.4801 19.5L72.8412 12.471L78.3091 7.744L71.1011 7.127L68.2854 0.5L65.4698 7.127L58.2617 7.744L63.7296 12.471L62.0908 19.5L68.2854 15.773Z" fill="#052EA6"/>
</g>
<g clip-path="url(#clip4)">
<path fill-rule="evenodd" clip-rule="evenodd" d="M87.3323 15.773L93.5269 19.5L91.8881 12.471L97.356 7.744L90.1479 7.127L87.3323 0.5L84.5166 7.127L77.3086 7.744L82.7765 12.471L81.1376 19.5L87.3323 15.773Z" fill="#052EA6"/>
</g>
<defs>
<clipPath id="clip0">
<rect width="20.0474" height="21" fill="white" transform="translate(0.125)"/>
</clipPath>
<clipPath id="clip1">
<rect width="20.0474" height="21" fill="white" transform="translate(20.1719)"/>
</clipPath>
<clipPath id="clip2">
<rect width="20.0474" height="21" fill="white" transform="translate(39.2168)"/>
</clipPath>
<clipPath id="clip3">
<rect width="20.0474" height="21" fill="white" transform="translate(58.2617)"/>
</clipPath>
<clipPath id="clip4">
<rect width="20.0474" height="21" fill="white" transform="translate(77.3086)"/>
</clipPath>
</defs>
</svg>
