<svg width="76" height="81" viewBox="0 0 76 81" fill="none" xmlns="http://www.w3.org/2000/svg">
<g clip-path="url(#clip0)">
<path d="M27.2034 55.0742C26.893 55.1031 26.857 55.3883 26.7812 55.5833C26.2978 56.4425 25.6844 57.2513 25.0709 58.06C24.2663 59.1684 23.2667 60.2011 22.527 61.3348C22.0941 62.064 21.6611 62.7933 21.2932 63.5479C21.0154 64.2627 20.6727 64.9522 20.4599 65.6923C20.3229 66.2374 20.2112 66.7175 20.0994 67.1976C20.0236 67.3926 20.0779 67.638 19.7927 67.602C19.5725 67.5912 19.428 67.3855 19.4641 67.1003C19.6081 65.9596 19.9724 64.8297 20.4016 63.725C21.1591 61.7755 22.4509 60.1833 23.7427 58.591C24.6124 57.5079 25.417 56.3994 26.1819 55.2008C26.5896 54.5365 26.16 54.2948 25.9758 53.9988C25.0297 52.5841 24.5347 50.9707 23.9494 49.397C23.2818 49.9603 22.697 49.7331 22.0074 49.3903C20.5381 48.7446 19.1697 47.839 17.8664 46.9586C17.267 46.5761 16.6027 46.1684 16.0287 45.721C15.859 45.5803 15.7795 45.3998 15.6748 45.2843C15.6603 45.1291 15.6206 45.0389 15.7361 44.9342C15.8263 44.8944 15.8913 44.9197 15.996 45.0352C17.0684 46.125 18.4078 46.7202 19.6714 47.5104C20.6354 48.1093 21.6391 48.7985 22.7942 49.0977C22.9892 49.1735 23.1192 49.224 23.2744 49.2095C23.805 49.1913 23.971 48.9566 23.7073 48.4802C23.7396 47.8196 23.3245 47.7331 22.8191 47.6863C22.1838 47.5891 21.6242 47.2968 20.9996 46.9793C19.6855 46.3191 18.4471 45.464 17.2485 44.6991C16.8188 44.4574 16.3242 44.1904 15.9451 43.8187C15.7754 43.678 15.6057 43.5372 15.7717 43.3026C15.9124 43.1329 16.1723 43.2339 16.342 43.3746C17.0208 43.9375 17.9053 44.356 18.5841 44.9189C19.2232 45.3916 19.8875 45.7993 20.577 46.142C21.3063 46.575 22.0609 46.9429 22.8659 47.181C23.346 47.2927 23.3965 47.1628 23.3278 46.7621C23.3133 46.6069 23.2339 46.4264 23.2194 46.2712C23.1722 45.4302 22.7029 45.0982 21.9376 44.9504C21.3924 44.8134 20.8329 44.5212 20.313 44.3192C19.6632 44.0667 18.9736 43.724 18.3995 43.2765C17.5655 42.7281 16.7965 42.2049 16.1285 41.4218C16.0238 41.3063 15.9191 41.1908 15.7494 41.0501C15.6049 40.8444 15.5904 40.6892 15.7312 40.5195C15.9369 40.375 16.1066 40.5158 16.251 40.7215C16.5399 41.1329 16.984 41.5298 17.3632 41.9015C18.1467 42.5799 19.0457 43.1536 20.0349 43.6876C20.5295 43.9545 21.0096 44.0663 21.5295 44.2683C21.8544 44.3945 22.089 44.5605 22.414 44.6868C22.4789 44.712 22.5187 44.8023 22.6089 44.7625C22.6991 44.7228 22.6594 44.6326 22.6197 44.5423C22.392 43.7807 22.1644 43.0192 21.962 42.1926C21.5465 40.7597 21.0407 39.3664 20.5602 37.9083C20.3723 37.2369 20.004 36.645 19.7258 36.0134C19.6066 35.7427 19.2817 35.6165 19.047 35.4505C18.278 34.9273 17.574 34.4294 16.8952 33.8664C16.4511 33.4695 15.9565 33.2025 15.6026 32.7658C15.4979 32.6504 15.4184 32.4699 15.5339 32.3652C15.6494 32.2605 15.8046 32.246 15.9995 32.3217C16.0645 32.347 16.1043 32.4372 16.1692 32.4625C17.0972 33.3466 18.1009 34.0357 19.0541 34.8549C19.1191 34.8801 19.1841 34.9054 19.249 34.9306C19.1803 34.53 19.0864 34.1943 18.8372 33.8731C18.7722 33.8478 18.7325 33.7576 18.6928 33.6674C18.7251 33.0068 18.2305 32.7398 17.8261 32.4331C17.1473 31.8702 16.4433 31.3722 15.8295 30.8346C15.7247 30.7191 15.5045 30.7083 15.6705 30.4737C15.8113 30.304 15.916 30.4194 16.0207 30.5349C16.6597 31.0076 17.2988 31.4803 17.9379 31.953C17.6597 31.3214 17.4466 30.715 17.1432 30.1484C16.7856 29.3363 16.197 28.7336 15.6085 28.131C15.5038 28.0155 15.3991 27.9 15.5145 27.7953C15.63 27.6906 15.76 27.7411 15.8647 27.8565C16.428 28.5242 17.1718 29.1124 17.5944 29.9497C17.8977 30.5163 18.1759 31.1479 18.5695 31.6749C18.5513 31.1442 18.5331 30.6136 18.5149 30.083C18.493 29.177 18.2906 28.3504 18.1134 27.4588C18.0737 27.3686 18.0592 27.2134 18.2144 27.1989C18.3299 27.0942 18.4346 27.2097 18.5393 27.3252C18.7633 27.7113 18.767 28.0867 18.8609 28.4224C19.0381 29.314 19.125 30.2452 19.1469 31.1513C19.1506 31.5267 19.1796 31.8371 19.1833 32.2125C19.1473 32.4977 19.1762 32.8081 19.2954 33.0788C19.653 33.8909 20.0504 34.7932 20.4982 35.5656C20.48 35.0349 20.4618 34.5043 20.5338 33.934C20.4829 32.7175 20.497 31.5263 20.3812 30.2846C20.3377 29.8189 20.269 29.4183 20.2905 28.9779C20.276 28.8227 20.2218 28.5772 20.442 28.588C20.6622 28.5988 20.7669 28.7143 20.7562 28.9344C20.7744 29.4651 20.8828 29.956 20.901 30.4866C21.0169 31.7283 21.0028 32.9195 20.9887 34.1107C20.9924 34.4861 20.9709 34.9265 21.0143 35.3922C20.8231 35.6918 20.7978 35.7568 20.7473 35.8868C20.4659 36.2262 20.6248 36.5871 20.7837 36.948C21.3148 38.2762 21.7555 39.6442 22.2613 41.0374C22.5829 42.1347 22.9947 43.1922 23.226 44.3292C23.457 44.1197 23.4028 43.8743 23.4785 43.6794C23.7741 42.1488 24.0696 40.6181 24.3002 39.0623C24.4443 37.9216 24.4331 36.7954 24.487 35.6944C24.4725 35.5392 24.4832 35.319 24.6385 35.3045C24.8586 35.3152 25.0283 35.456 24.9923 35.7412C24.9459 37.593 24.8995 39.4447 24.4128 41.275C24.2505 41.8851 24.1785 42.4555 24.0812 43.0908C23.9947 43.5059 23.8684 43.8309 23.7169 44.2207C23.4897 44.8056 23.5079 45.3362 23.6813 45.8523C24.0029 46.9496 24.2992 48.1119 24.6858 49.2344C25.0575 48.8552 25.2342 48.4004 25.4759 47.9707C25.8079 47.5014 25.9197 47.0213 26.1866 46.5266C26.4536 46.032 26.5256 45.4617 26.5977 44.8913C26.7815 43.8408 26.8605 42.6749 26.9144 41.5739C26.9467 40.9133 27.2894 40.2238 27.1015 39.5524C26.8702 38.4154 26.794 37.2639 26.4075 36.1414C26.0209 35.0189 25.5188 34.0011 25.0168 32.9833C24.6592 32.1712 24.1609 31.5289 23.5976 30.8612C23.2184 30.4895 22.9548 30.0131 22.6659 29.6017C22.0629 28.8438 21.3191 28.2557 20.5501 27.7325C20.0807 27.4005 19.6619 26.9386 19.0518 26.7763C17.9868 26.4373 17.2285 25.6939 16.2141 25.225C15.8494 25.0085 15.5353 24.662 15.1309 24.3553C14.9612 24.2146 14.9215 24.1244 14.8602 24.4745C14.7306 25.7705 14.6263 27.0014 14.4318 28.2721C14.1904 30.0481 13.9743 31.7592 13.668 33.51C13.4337 34.6904 13.1994 35.8709 13.1203 37.0368C13.0375 37.8274 13.045 38.5782 13.0272 39.394C12.9878 40.6502 13.1037 41.8919 13.465 43.0794C13.9203 44.6026 14.6715 45.9416 15.7836 47.1216C16.726 48.161 17.8345 48.9656 18.9681 49.7053C19.7769 50.3187 20.7769 50.6324 21.7119 50.921C22.0368 51.0472 22.3617 51.1734 22.6866 51.2997C23.1415 51.4764 23.5421 51.4077 24.0475 51.4545C24.2027 51.44 24.3327 51.4905 24.2822 51.6205C24.2967 51.7757 24.1414 51.7902 24.0512 51.8299C23.7408 51.8589 23.3401 51.9276 23.0802 51.8266C22.4051 51.6391 21.7301 51.4516 21.0153 51.1738C20.5604 50.9971 20.1705 50.8456 19.7156 50.6688C18.7409 50.2901 17.9321 49.6767 17.0584 49.038C16.0547 48.3489 15.1917 47.49 14.5092 46.5517C14.1156 46.0248 13.722 45.4978 13.4439 44.8662C13.126 44.1444 12.8334 43.3575 12.631 42.531C12.4249 41.329 12.2188 40.127 12.3881 38.9213C12.5467 37.9358 12.42 36.9143 12.6038 35.8638C12.7768 35.0336 12.9499 34.2033 13.0579 33.3477C13.166 32.4922 13.339 31.6619 13.447 30.8064C13.5766 29.5105 13.8109 28.33 13.9405 27.0341C14.0593 25.9584 14.0879 24.9224 14.2067 23.8466C14.2427 23.5615 14.0838 23.2005 14.5097 23.0668C14.8454 22.9729 15.0295 23.2688 15.239 23.4998C15.8673 24.1927 16.5208 24.8206 17.3656 25.1488C17.6255 25.2498 17.7952 25.3906 18.0299 25.5565C18.474 25.9535 19.0841 26.1157 19.6039 26.3177C20.1888 26.545 20.6329 26.9419 21.1672 27.2991C22.2106 28.0785 23.0736 28.9374 23.7959 29.966C24.2689 30.6733 24.8575 31.276 25.3053 32.0483C25.5292 32.4345 25.7929 32.9109 25.9915 33.3621C26.5623 34.7805 27.2882 36.1845 27.5233 37.6969C27.6499 38.7184 27.9968 39.7507 27.7083 40.6857C27.4847 41.6459 27.5716 42.5772 27.4383 43.4977C27.2798 44.4832 27.2115 45.429 26.858 46.3387C26.555 47.1185 26.1618 47.938 25.7938 48.6926C25.6928 48.9525 25.4871 49.097 25.3211 49.3316C25.1299 49.6313 25.0036 49.9562 25.2023 50.4074C25.6791 51.4901 26.0909 52.5477 26.6579 53.5907C26.7374 53.7712 26.8421 53.8867 26.9866 54.0924C27.3943 53.4281 27.802 52.7638 28.2097 52.0995C28.7689 51.0453 29.4328 50.1065 30.057 49.0776C30.7064 47.9837 31.4606 47.0052 32.24 45.9618C33.1854 44.6837 34.0657 43.3803 35.0111 42.1022C35.1771 41.8675 35.2529 41.6726 35.4838 41.4631C35.574 41.4234 35.5596 41.2682 35.5198 41.178C35.2777 40.2612 35.3208 39.3804 35.2339 38.4491C35.1433 37.1424 35.2331 35.7563 35.2977 34.4351C35.3552 33.7095 35.5428 33.0344 35.7303 32.3594C36.1703 31.0345 36.8052 29.7853 37.4149 28.6012C38.1761 27.0271 39.1972 25.5541 40.1931 24.146C41.2142 22.6729 42.5495 21.5463 43.8198 20.3944C44.7437 19.5567 45.6422 18.784 46.6058 18.0365C48.1613 16.9206 49.6915 15.8698 51.4059 15.1149C52.3732 14.7428 53.3008 14.2805 54.3331 13.9336C55.0946 13.706 55.7768 13.2979 56.4986 12.98C56.809 12.9511 57.1087 13.1423 57.1124 13.5177C57.0909 13.9581 56.9394 14.348 56.8529 14.7631C56.5644 15.6981 56.3661 16.5934 56.0126 17.5032C55.4319 18.9978 55.176 20.6186 54.6603 22.1384C54.2455 23.3983 53.856 24.5933 53.3763 25.8279C52.9218 26.9976 52.5323 28.1925 52.1428 29.3875C51.9553 30.0625 51.6378 30.6871 51.3853 31.3369C51.0716 32.3369 50.3932 33.1204 49.8844 34.0446C49.567 34.6692 49.0546 35.218 48.7371 35.8426C48.4953 36.2722 47.9937 36.6009 47.622 36.98C46.6621 38.1029 45.5723 39.1753 44.2983 39.9517C43.526 40.3996 42.7789 40.7824 41.927 41.0498C41.4109 41.2232 40.9092 41.5518 40.3534 41.635C39.6423 41.7327 39.0504 42.101 38.3141 42.2637C37.4225 42.4408 36.5562 42.553 35.6862 42.2897C35.4263 42.1887 35.3505 42.3837 35.3 42.5136C33.9867 44.5463 32.5289 46.3732 31.0856 48.3554C30.3964 49.3591 29.7072 50.3628 29.1228 51.4819C28.6141 52.4062 28.0404 53.3052 27.4667 54.2041C27.4559 54.4243 27.3297 54.7492 27.2034 55.0742ZM56.1848 13.98C55.0263 14.6518 53.7089 14.9626 52.5106 15.5441C51.6733 15.9667 50.7312 16.2738 49.8686 16.7613C48.3239 17.657 46.884 18.6681 45.4585 19.8345C44.8811 20.358 44.3036 20.8816 43.7262 21.4052C42.6617 22.4126 41.5574 23.3298 40.7275 24.5032C39.7316 25.9113 38.7357 27.3193 37.9745 28.8934C37.4153 29.9476 36.8561 31.0018 36.4269 32.1065C36.0229 33.1462 35.6839 34.2112 35.76 35.3626C35.7749 36.8643 35.6345 38.3804 35.7794 39.9325C35.7686 40.1527 35.7578 40.3729 35.877 40.6436C36.5915 39.5749 37.4503 38.712 38.19 37.5783C37.7136 37.842 37.6846 37.5315 37.6304 37.2861C37.7637 36.3656 37.7815 35.5498 37.7091 34.7737C37.6872 33.8677 37.6905 32.8967 37.6938 31.9256C37.6793 31.7704 37.7551 31.5755 37.9103 31.561C38.0655 31.5465 38.0548 31.7667 38.0945 31.8569C38.1632 32.2576 38.1669 32.633 38.1706 33.0084C38.2107 34.4451 38.1859 35.8565 38.356 37.3436C38.4462 37.3039 38.4714 37.2389 38.4967 37.1739C39.0596 36.4951 39.5178 35.7009 40.1205 35.1123C41.2608 33.91 42.4011 32.7076 43.5017 31.415C43.7832 31.0756 44.2198 30.7217 43.8262 30.1948C43.8262 30.1948 43.8262 30.1948 43.8515 30.1298C43.6094 29.213 43.7679 28.2275 43.811 27.3468C43.8756 26.0256 44.0304 24.6647 44.2502 23.329C44.3367 22.9139 44.3835 22.4085 44.5602 21.9536C44.6612 21.6937 44.7912 21.7442 45.0259 21.9102C45.1956 22.0509 45.1451 22.1809 45.0693 22.3758C44.9178 22.7657 44.8313 23.1809 44.7448 23.596C44.6008 24.7367 44.4567 25.8774 44.3524 27.1084C44.2336 28.1841 44.27 29.2453 44.3713 30.3318C44.4616 30.2921 44.4868 30.2271 44.5771 30.1874C45.3204 29.4291 45.8544 28.4399 46.5978 27.6817C46.688 27.6419 46.6735 27.4867 46.6338 27.3965C46.4641 27.2558 46.6048 27.0861 46.6951 27.0463C47.2617 26.7429 47.5287 26.2483 47.9256 25.8042C48.1566 25.5948 48.3226 25.3601 48.4091 24.945C48.3188 24.9847 48.2286 25.0244 48.1384 25.0642C48.0481 25.1039 47.9327 25.2086 47.9182 25.0534C47.8135 24.9379 47.8387 24.8729 47.9542 24.7682C48.0697 24.6635 48.0949 24.5985 48.2104 24.4938C48.7626 24.0352 49.3797 23.6019 49.7224 22.9123C50.2311 21.9881 50.6496 21.1036 51.1583 20.1794C51.501 19.4898 52.1037 18.9012 52.3164 18.1612C52.3417 18.0962 52.4319 18.0565 52.5871 18.042C52.7171 18.0925 52.6918 18.1575 52.6413 18.2874C52.5801 18.6376 52.5441 18.9228 52.2879 19.1972C51.6239 20.1359 51.1947 21.2406 50.6752 22.385C50.8557 22.3056 50.9459 22.2658 51.0614 22.1611C51.8805 21.2079 52.9993 20.4459 53.7137 19.3773C53.7642 19.2473 53.775 19.0271 54.0097 19.1931C54.1794 19.3338 54.1939 19.489 54.1181 19.684C54.0929 19.749 53.9774 19.8537 53.9521 19.9187C53.0175 20.9766 52.0432 21.9443 51.0039 22.8867C50.4517 23.3453 49.8995 23.8039 49.5568 24.4934C49.4306 24.8183 49.1744 25.0928 48.8677 25.4971C49.0481 25.4177 49.1131 25.4429 49.1384 25.3779C50.6433 24.392 51.8739 23.1499 53.1044 21.9079C53.3606 21.6334 53.4256 21.6587 53.5846 22.0196C53.664 22.2001 53.5485 22.3048 53.4331 22.4095C52.419 23.287 51.5349 24.2149 50.3908 25.0419C49.633 25.6449 48.8751 26.2479 48.0775 26.7608C47.8718 26.9052 47.7166 26.9197 47.5506 27.1544C47.2584 27.714 46.9012 28.2483 46.4392 28.6672C46.183 28.9416 45.9268 29.216 45.8403 29.6311C46.5477 29.158 47.2803 28.62 47.9877 28.1469C49.3374 27.1755 50.6474 26.1139 51.8925 25.027C52.1234 24.8176 52.1632 24.9078 52.3076 25.1135C52.517 25.3445 52.3113 25.4889 52.1706 25.6586C51.6437 26.0522 51.1168 26.4458 50.6549 26.8647C49.4856 27.7566 48.3813 28.6738 47.1722 29.4755C46.4649 29.9486 45.7575 30.4217 45.1151 30.92C44.7037 31.2089 44.267 31.5628 43.8953 31.9419C43.3577 32.5557 42.8452 33.1045 42.3473 33.8086C42.5278 33.7291 42.618 33.6894 42.7082 33.6496C43.6105 33.2523 44.4334 32.6745 45.296 32.187C46.2488 31.6597 47.1366 31.1071 47.9847 30.4644C48.7173 29.9263 49.3452 29.2728 50.0778 28.7347C50.1933 28.63 50.2836 28.5903 50.4135 28.6407C50.5182 28.7562 50.623 28.8717 50.4822 29.0414C50.4317 29.1714 50.3415 29.2111 50.226 29.3158C49.5584 29.8791 48.851 30.3522 48.1834 30.9155C47.1296 31.7027 45.971 32.3745 44.9027 33.0065C44.0402 33.494 43.1776 33.9816 42.25 34.4439C41.7989 34.6426 41.2682 34.6608 40.9363 35.1301C40.8208 35.2348 40.745 35.4298 40.6043 35.5995C40.0919 36.1483 39.7094 36.7476 39.1465 37.4264C39.4822 37.3325 39.7024 37.3432 39.9081 37.1988C41.6585 36.1587 43.5029 35.4543 45.293 34.5044C46.3108 34.0024 47.2889 33.4101 48.0972 32.6771C48.2127 32.5724 48.3535 32.4027 48.5232 32.5434C48.6929 32.6841 48.6171 32.8791 48.4764 33.0488C48.2851 33.3484 48.0542 33.5579 47.7582 33.742C46.6394 34.504 45.4159 35.1505 44.1527 35.7068C43.0699 36.1836 41.9222 36.6351 40.9188 37.2924C40.5327 37.5163 40.1465 37.7402 39.6556 37.8486C39.4751 37.9281 39.2802 37.8523 39.2007 37.6719C39.0563 37.4662 39.031 37.5311 38.8903 37.7008C38.5583 38.1702 38.2264 38.6396 37.8294 39.0837C37.1763 39.8022 36.7181 40.5965 36.1949 41.3655C36.1444 41.4954 36.1589 41.6507 36.3141 41.6362C36.7545 41.6577 37.2996 41.7947 37.7255 41.661C39.3642 41.1011 41.1075 40.6566 42.6667 39.9161C43.3236 39.573 44.0454 39.2551 44.6373 38.8868C45.8716 38.0201 46.7665 36.872 47.8563 35.7995C48.4337 35.276 48.7114 34.5612 49.1841 33.9221C49.9888 32.8137 50.6887 31.5898 51.1937 30.2902C51.5327 29.2252 51.897 28.0953 52.3009 27.0555C52.8924 25.3408 53.5489 23.6512 54.0754 21.9112C54.3135 21.1061 54.5912 20.3913 54.7642 19.5611C54.8868 18.8607 55.0093 18.1604 55.2365 17.5756C55.5755 16.5106 55.9253 15.2255 56.1848 13.98Z" fill="white"/>
<path d="M27.2041 55.0741C28.0704 54.9619 28.8319 54.7343 29.6585 54.5319C30.5501 54.3548 31.4669 54.1127 32.3332 54.0005C32.5786 53.9463 32.7338 53.9318 32.7698 53.6467C32.7806 53.4265 32.9611 53.347 33.1018 53.1773C33.8704 52.3541 34.6391 51.5308 35.5124 50.8231C36.5012 50.0106 37.6598 49.3389 38.6883 48.6166C39.3704 48.2085 39.9731 47.62 40.7347 47.3923C41.702 47.0203 42.6548 46.493 43.6221 46.1209C45.3112 45.4309 47.0401 44.8312 48.8377 44.6322C49.6138 44.5598 50.4043 44.6426 51.1804 44.5701C52.5521 44.5048 53.913 44.6596 55.2341 44.7242C56.3351 44.778 57.4109 44.8968 58.5118 44.9507C59.3276 44.9685 60.1832 45.0765 61.0134 45.2495C61.9737 45.4731 62.9339 45.6966 63.9194 45.8551C64.2696 45.9164 64.4538 46.2123 64.6632 46.4433C64.7679 46.5588 64.7319 46.844 64.5515 46.9234C63.9343 47.3568 63.3966 47.9706 62.8192 48.4942C61.7149 49.4113 60.95 50.61 59.9107 51.5524C59.0771 52.3504 58.3229 53.3289 57.594 54.2423C57.1718 54.7514 56.6197 55.21 56.0675 55.6686C55.1437 56.5063 54.0899 57.2935 53.0613 58.0158C51.6213 59.0269 49.9827 59.5869 48.3043 60.0567C46.5609 60.5011 44.7994 60.415 43.0486 60.1087C42.3482 59.9862 41.7489 59.6037 41.0991 59.3512C40.5792 59.1492 40.0739 59.1024 39.5288 58.9654C38.6587 58.7022 37.8537 58.4642 37.0847 57.941C36.6551 57.6992 36.3157 57.4178 35.8608 57.241C34.951 56.8875 34.3227 56.1947 33.6295 55.4765C33.42 55.2456 33.2106 55.0146 33.0012 54.7836C32.8567 54.5779 32.6618 54.5022 32.4163 54.5564C31.5898 54.7588 30.7487 54.8059 29.8319 55.0481C29.0703 55.2757 28.269 55.4131 27.5074 55.6407C27.262 55.6949 27.0418 55.6842 26.8721 55.5435C26.8829 55.3233 27.1536 55.2041 27.2041 55.0741ZM36.8017 52.8947C36.8667 52.9199 36.9316 52.9452 36.9316 52.9452C38.2781 52.9448 39.5703 52.6989 40.877 52.6083C42.8695 52.485 44.8583 51.9863 46.7966 51.6176C48.3343 51.3175 49.8864 51.1727 51.3843 50.7824C52.6765 50.5366 53.864 50.1753 55.0225 49.5035C55.499 49.2399 55.8057 48.8355 56.2821 48.5718C56.3975 48.4671 56.6033 48.3227 56.773 48.4634C56.9427 48.6041 56.7767 48.8388 56.6612 48.9435C56.0333 49.5971 55.3801 50.3156 54.4633 50.5577C54.1277 50.6517 53.857 50.7709 53.5863 50.8901C53.561 50.955 53.626 50.9803 53.6008 51.0453C54.5465 51.1136 55.4778 51.0267 56.3946 50.7846C57.0407 50.6617 57.777 50.499 58.3689 50.1306C58.4844 50.0259 58.7154 49.8165 58.8346 50.0872C58.914 50.2677 58.7083 50.4121 58.5026 50.5565C58.4124 50.5963 58.4124 50.5963 58.3222 50.636C57.6653 50.9791 56.9037 51.2068 56.1926 51.3044C55.4815 51.4021 54.6802 51.5395 53.9799 51.417C53.2543 51.3594 52.5937 51.3271 51.9729 51.3851C51.0416 51.472 50.2548 51.7646 49.3235 51.8515C49.0131 51.8804 48.6124 51.9491 48.302 51.9781C48.7568 52.1548 49.1972 52.1764 49.6774 52.2881C50.7278 52.4719 51.7638 52.5005 52.8901 52.4894C53.8611 52.4927 54.9368 52.6115 55.8933 52.4596C55.9836 52.4199 56.1135 52.4704 56.1533 52.5606C56.2327 52.7411 56.1822 52.871 56.0018 52.9505C55.7961 53.095 55.5759 53.0842 55.3557 53.0734C54.2042 53.1496 53.1032 53.0957 52.0022 53.0419C50.9013 52.9881 49.8003 52.9342 48.7353 52.5952C47.6703 52.2562 46.6343 52.2277 45.5623 52.4843C44.3351 52.7553 43.1584 52.8965 41.8914 53.0773C41.0901 53.2147 40.2996 53.1319 39.473 53.3343C40.177 53.8322 40.8413 54.2399 41.5561 54.5177C42.206 54.7702 42.9208 55.0479 43.5958 55.2354C44.4658 55.4987 45.2709 55.7367 46.1662 55.935C47.6065 56.2703 49.0072 56.5153 50.5088 56.5004C50.664 56.486 50.9492 56.522 50.9132 56.8072C50.9421 57.1176 50.657 57.0816 50.5018 57.096C49.5055 57.1577 48.4803 56.9089 47.4695 56.8154C46.419 56.6316 45.3938 56.3828 44.3938 56.069C42.7188 55.5678 41.0942 54.9365 39.5959 53.9804C39.2962 53.7892 39.0471 53.468 38.6717 53.4717C37.6609 53.3781 36.6539 53.66 35.6974 53.8119C35.6324 53.7866 35.5422 53.8263 35.5819 53.9166C36.4556 54.5552 37.4304 54.934 38.3798 55.3777C39.564 55.9874 40.7734 56.5321 42.0081 57.0119C43.1128 57.4411 44.2282 57.6501 45.4447 57.5993C45.5999 57.5848 45.7299 57.6353 45.7444 57.7905C45.7588 57.9457 45.7733 58.1009 45.5929 58.1804C45.5026 58.2201 45.4124 58.2598 45.3474 58.2346C44.4811 58.3467 43.6256 58.2387 42.7808 57.9105C41.6761 57.4812 40.5967 56.987 39.5172 56.4928C38.3728 55.9733 37.1634 55.4286 36.0694 54.7792C35.7698 54.5879 35.2897 54.4762 35.4014 53.996C35.0008 54.0647 34.6001 54.1334 34.1994 54.2021C33.824 54.2059 33.9035 54.3863 34.0227 54.657C34.1419 54.9277 34.4018 55.0287 34.5463 55.2344C34.9651 55.6963 35.319 56.133 35.8786 56.4252C36.6331 56.7932 37.2974 57.2009 38.052 57.5689C38.4816 57.8106 38.8463 58.0271 39.3264 58.1389C39.9112 58.3661 40.5718 58.3984 41.0917 58.6004C41.6765 58.8276 42.3263 59.0801 42.9364 59.2424C43.8064 59.5057 44.7522 59.574 45.633 59.617C47.3043 59.7429 48.9177 59.2479 50.4264 58.6374C51.8196 58.1317 53.0539 57.265 54.2484 56.3081C55.3275 55.4558 56.4065 54.6036 57.3159 53.6107C58.5572 52.1484 59.8383 50.7764 61.1446 49.3393C62.0034 48.4763 62.8226 47.5231 63.7464 46.6854C63.9521 46.541 63.9124 46.4507 63.6525 46.3497C63.1326 46.1478 62.602 46.166 62.1219 46.0542C61.2916 45.8812 60.4613 45.7081 59.6707 45.6253C57.7792 45.4887 55.9129 45.2871 54.1116 45.1108C52.9457 45.0317 51.8592 45.1331 50.668 45.119C49.0364 45.0833 47.4337 45.3581 45.8601 45.9434C44.5318 46.4744 43.1386 46.9801 41.8249 47.6664C41.0778 48.0492 40.291 48.3418 39.6486 48.8401C38.4143 49.7068 37.0501 50.523 35.9205 51.5052C35.3431 52.0288 34.6755 52.5921 34.1378 53.2059C34.1125 53.2709 33.9971 53.3756 34.0368 53.4658C34.0765 53.556 34.1668 53.5163 34.257 53.4766C34.7479 53.3681 35.1738 53.2345 35.6647 53.126C35.9101 53.0718 36.0256 52.9671 36.2313 52.8226C36.6283 52.3785 37.0649 52.0247 37.5918 51.631C38.5302 50.9485 39.4937 50.201 40.4321 49.5185C41.3704 48.836 42.2438 48.1283 43.2218 47.536C43.4023 47.4565 43.608 47.3121 43.7524 47.5178C43.8969 47.7235 43.7164 47.803 43.5107 47.9474C42.4822 48.6697 41.4536 49.3919 40.4503 50.0492C40.2193 50.2586 39.9089 50.2876 39.6779 50.497C39.281 50.9411 38.7143 51.2445 38.2777 51.5984C37.6353 52.0967 37.2383 52.5408 36.8017 52.8947Z" fill="white"/>
<path d="M22.3297 40.0916C22.1563 39.5755 22.2283 39.0051 22.3401 38.525C22.4879 37.7597 22.5454 37.0341 22.603 36.3086C22.6423 35.0524 22.6564 33.8611 22.5405 32.6194C22.5116 32.309 22.4574 32.0636 22.4284 31.7531C22.4139 31.5979 22.4896 31.403 22.7098 31.4137C22.8398 31.4642 22.9445 31.5797 22.9338 31.7999C22.9449 32.9261 23.0463 34.0126 23.0575 35.1389C23.0541 36.1099 22.9606 37.1206 22.802 38.1061C22.7552 38.6115 22.6687 39.0266 22.6219 39.532C22.7014 39.7125 22.3657 39.8064 22.3297 40.0916Z" fill="white"/>
<path d="M20.7884 42.7091C19.7739 42.2401 18.8749 41.6664 18.0012 41.0277C17.2322 40.5046 16.4379 40.0464 15.6941 39.4582C15.5894 39.3427 15.4595 39.2922 15.38 39.1117C15.3005 38.9313 15.351 38.8013 15.4413 38.7616C15.5567 38.6569 15.647 38.6171 15.8167 38.7579C16.7446 39.642 17.8386 40.2914 18.8423 40.9806C19.5463 41.4785 20.3153 42.0017 21.1601 42.3299C21.29 42.3804 21.5102 42.3912 21.4742 42.6764C21.3732 42.9363 21.2035 42.7956 21.0483 42.8101C21.0086 42.7198 20.8786 42.6693 20.7884 42.7091Z" fill="white"/>
<path d="M19.5564 38.5654C18.8019 38.1975 18.2531 37.6851 17.5888 37.2773C16.9497 36.8047 16.4009 36.2922 15.8268 35.8448C15.6571 35.7041 15.5127 35.4984 15.4584 35.2529C15.444 35.0977 15.5594 34.993 15.6497 34.9532C15.7652 34.8485 15.8951 34.899 15.9349 34.9893C16.2382 35.5559 16.7328 35.8229 17.1769 36.2198C17.8955 36.873 18.6645 37.3962 19.4985 37.9446C19.6682 38.0853 19.8631 38.1611 20.0581 38.2368C20.188 38.2873 20.383 38.3631 20.3072 38.558C20.2315 38.753 20.0763 38.7674 19.8813 38.6917C19.7514 38.6412 19.6214 38.5907 19.5564 38.5654Z" fill="white"/>
<path d="M24.8401 46.527C25.3016 44.7617 25.4779 42.9604 25.5641 41.1988C25.6001 40.9137 25.6109 40.6935 25.5819 40.383C25.5674 40.2278 25.6684 39.9679 25.7984 40.0184C25.9536 40.0039 26.098 40.2096 26.0223 40.4046C25.961 40.7547 26.055 41.0904 26.0587 41.4658C25.9651 42.4766 25.9618 43.4476 25.8032 44.4331C25.706 45.0684 25.5437 45.6785 25.3165 46.2633C25.1757 46.433 25.1252 46.563 24.8401 46.527Z" fill="white"/>
<path d="M19.9902 40.529C19.2754 40.2513 18.6364 39.7786 18.0623 39.3312C17.463 38.9487 16.9539 38.5265 16.4448 38.1043C16.3798 38.0791 16.2751 37.9636 16.2101 37.9383C16.0657 37.7326 15.7913 37.4764 16.0872 37.2922C16.3182 37.0828 16.5023 37.3787 16.672 37.5195C17.7299 38.4541 18.8131 39.3237 20.0623 39.9587C20.2572 40.0344 20.3619 40.1499 20.5316 40.2906C20.5966 40.3159 20.7915 40.3916 20.6761 40.4963C20.6256 40.6263 20.5353 40.666 20.3404 40.5903C20.2104 40.5398 20.0552 40.5543 19.9902 40.529Z" fill="white"/>
<path d="M43.0778 23.8455C43.3124 24.0115 43.3269 24.1667 43.2512 24.3617C42.9266 25.5818 42.9126 26.773 42.7432 27.9787C42.6497 28.9895 42.6211 30.0255 42.6178 30.9965C42.607 31.2167 42.6612 31.4621 42.7154 31.7076C42.7299 31.8628 42.7444 32.018 42.5242 32.0072C42.369 32.0217 42.3545 31.8665 42.3148 31.7763C42.1161 31.3251 42.1376 30.8847 42.1592 30.4443C42.1696 28.8777 42.3604 27.2316 42.526 25.6505C42.5728 25.1452 42.5943 24.7048 42.7061 24.2246C42.7818 24.0297 42.9225 23.86 43.0778 23.8455Z" fill="white"/>
<path d="M41.2538 33.1591C41.2033 33.2891 41.178 33.354 41.0878 33.3938C40.9975 33.4335 40.9831 33.2783 40.9181 33.253C40.6942 32.8669 40.7807 32.4517 40.777 32.0763C40.8018 30.6649 40.8917 29.2787 40.9815 27.8926C40.9778 27.5172 40.9741 27.1418 41.1256 26.7519C41.1761 26.6219 41.2266 26.4919 41.3565 26.5424C41.4865 26.5929 41.5262 26.6832 41.5407 26.8384C41.4074 27.7589 41.3391 28.7047 41.3358 29.6757C41.3324 30.6467 41.1486 31.6972 41.3005 32.6537C41.315 32.8089 41.1093 32.9534 41.2538 33.1591Z" fill="white"/>
<path d="M46.2603 21.0435C46.2856 20.9785 46.3108 20.9135 46.3108 20.9135C46.3613 20.7835 46.3973 20.4984 46.6572 20.5994C46.8522 20.6751 46.8414 20.8953 46.7657 21.0903C46.3149 22.6353 46.1493 24.2164 46.1137 25.848C46.1427 26.1585 46.0814 26.5086 46.0201 26.8588C45.9696 26.9888 45.9841 27.144 45.8289 27.1585C45.6989 27.108 45.7494 26.978 45.7097 26.8878C45.6841 25.6063 45.7631 24.4404 45.8675 23.2094C45.99 22.5091 46.0475 21.7835 46.2603 21.0435Z" fill="white"/>
<path d="M37.6808 39.8489C37.5509 39.7984 37.4859 39.7732 37.5111 39.7082C37.5364 39.6432 37.6266 39.6035 37.7168 39.5637C38.7239 39.2819 39.6912 38.9098 40.6585 38.5377C41.6258 38.1656 42.4631 37.7431 43.3509 37.1905C43.4664 37.0858 43.6216 37.0713 43.7263 37.1868C43.8311 37.3023 43.8455 37.4575 43.7048 37.6272C43.5893 37.7319 43.4739 37.8366 43.3186 37.8511C41.8497 38.5518 40.3662 39.0973 38.8431 39.5526C38.5074 39.6465 38.197 39.6755 37.9263 39.7947C37.8108 39.8994 37.6808 39.8489 37.6808 39.8489Z" fill="white"/>
<path d="M49.1979 19.642C48.8949 20.4218 48.8121 21.2124 48.6643 21.9777C48.5418 22.678 48.4193 23.3783 48.322 24.0137C48.3112 24.2338 48.1958 24.3386 48.0405 24.353C47.8853 24.3675 47.8961 24.1473 47.8816 23.9921C47.9392 23.2666 47.9967 22.541 48.1192 21.8407C48.2418 21.1403 48.3643 20.44 48.5121 19.6747C48.5481 19.3895 48.6743 19.0646 48.8403 18.83C48.9558 18.7252 49.0063 18.5953 49.2012 18.671C49.3962 18.7468 49.3457 18.8767 49.2699 19.0717C49.2989 19.3821 49.2484 19.5121 49.1979 19.642Z" fill="white"/>
<path d="M39.8209 34.9211C39.7704 35.051 39.7199 35.181 39.5899 35.1305C39.4599 35.08 39.4202 34.9898 39.4057 34.8345C39.402 34.4591 39.3983 34.0837 39.4198 33.6433C39.4484 32.6073 39.3867 31.6111 39.3503 30.5498C39.3214 30.2394 39.3574 29.9542 39.3284 29.6438C39.3139 29.4886 39.3644 29.3586 39.5196 29.3441C39.6749 29.3296 39.7796 29.4451 39.794 29.6003C39.8085 29.7555 39.823 29.9108 39.8375 30.066C39.8524 31.5676 39.842 33.1342 39.8569 34.6359C39.8714 34.7911 39.8461 34.8561 39.8209 34.9211Z" fill="white"/>
<path d="M50.8532 18.2662C50.5502 19.046 50.4422 19.9016 50.2042 20.7066C50.1177 21.1217 49.9409 21.5766 49.8544 21.9918C49.8292 22.0567 49.7787 22.1867 49.6487 22.1362C49.4935 22.1507 49.5692 21.9557 49.5295 21.8655C49.5618 21.2049 49.6338 20.6346 49.7961 20.0245C49.9691 19.1942 50.1674 18.2989 50.4956 17.4542C50.5461 17.3242 50.6219 17.1293 50.7771 17.1148C50.9973 17.1255 51.167 17.2663 51.066 17.5262C51.0697 17.9016 50.929 18.0713 50.8532 18.2662Z" fill="white"/>
<path d="M43.1109 53.4019C44.2553 53.9214 45.5404 54.2711 46.8111 54.4657C48.2767 54.736 49.7134 54.6959 51.2005 54.5258C51.9766 54.4534 52.7274 54.4459 53.5432 54.4637C53.6985 54.4493 53.8934 54.525 53.9079 54.6802C53.9224 54.8354 53.8069 54.9402 53.5614 54.9944C52.1248 55.0345 50.7279 55.1648 49.3165 55.14C48.2552 55.1764 47.1795 55.0576 46.1795 54.7438C45.8546 54.6176 45.4142 54.596 45.0893 54.4698C45.0243 54.4445 45.0243 54.4445 44.9593 54.4193C44.2772 54.8274 43.9341 54.1705 43.4142 53.9685C43.2193 53.8928 42.9594 53.7918 42.8402 53.5211C42.8004 53.4309 42.7607 53.3406 42.8112 53.2107C42.9159 53.3261 43.0061 53.2864 43.1109 53.4019Z" fill="white"/>
<path d="M43.8433 51.5173C43.8541 51.2972 44.0345 51.2177 44.085 51.0877C44.6479 50.4089 45.3553 49.9359 46.023 49.3726C47.102 48.5203 48.2461 47.6934 49.4298 46.9567C49.6355 46.8122 49.816 46.7328 50.0362 46.7435C50.1914 46.729 50.2564 46.7543 50.3359 46.9348C50.3503 47.09 50.3251 47.1549 50.2096 47.2597C49.0619 47.7112 48.2282 48.5092 47.2249 49.1665C46.4273 49.6793 45.7344 50.3075 45.0416 50.9358C44.7204 51.185 44.4244 51.3692 44.1682 51.6436C44.078 51.6833 44.0527 51.7483 43.9877 51.7231C43.7278 51.6221 43.8433 51.5173 43.8433 51.5173Z" fill="white"/>
<path d="M46.6834 48.0584C46.5932 48.0982 46.4777 48.2029 46.3875 48.2426C45.1892 48.8241 44.2004 49.6366 43.0816 50.3986C42.1685 51.0161 41.2302 51.6986 40.3821 52.3414C40.2666 52.4461 40.1764 52.4858 40.0716 52.3703C39.9669 52.2548 40.0824 52.1501 40.1077 52.0852C40.4541 51.771 40.8258 51.3919 41.2372 51.103C42.6122 50.0666 43.9475 48.94 45.4922 48.0443C45.7629 47.9251 45.9686 47.7807 46.2645 47.5965C46.3548 47.5568 46.445 47.517 46.51 47.5423C46.6544 47.748 46.6689 47.9032 46.6834 48.0584Z" fill="white"/>
<path d="M57.1971 46.9833C57.1864 47.2035 57.1214 47.1783 57.0311 47.218C56.0639 47.5901 55.1508 48.2076 54.198 48.7349C53.5158 49.143 52.8337 49.5511 52.1516 49.9592C52.0614 49.9989 51.9711 50.0387 51.9062 50.0134C51.7509 50.0279 51.5452 50.1724 51.426 49.9017C51.3466 49.7212 51.527 49.6417 51.6425 49.537C53.2377 48.5114 54.8726 47.576 56.5076 46.6406C56.5978 46.6009 56.6231 46.5359 56.688 46.5612C56.7783 46.5214 56.919 46.3517 57.0634 46.5574C57.2981 46.7234 57.2874 46.9436 57.1971 46.9833Z" fill="white"/>
<path d="M48.0523 50.3105C47.7924 50.2095 47.9331 50.0398 48.0486 49.9351C48.4456 49.491 48.922 49.2273 49.4236 48.8987C50.3367 48.2812 51.3148 47.6889 52.2928 47.0966C52.5888 46.9124 52.9894 46.8437 53.3251 46.7498C53.4803 46.7353 53.5706 46.6956 53.5598 46.9158C53.5743 47.071 53.679 47.1865 53.4083 47.3057C52.1956 47.732 51.102 48.429 49.9435 49.1007C49.3768 49.4041 48.9149 49.8229 48.388 50.2165C48.3375 50.3465 48.222 50.4512 48.0523 50.3105Z" fill="white"/>
</g>
<defs>
<clipPath id="clip0">
<rect width="55.5351" height="64.2914" fill="white" transform="translate(23.2852) rotate(21.234)"/>
</clipPath>
</defs>
</svg>
