<?xml version="1.0" standalone="no"?>
<!DOCTYPE svg PUBLIC "-//W3C//DTD SVG 20010904//EN"
 "http://www.w3.org/TR/2001/REC-SVG-20010904/DTD/svg10.dtd">
<svg version="1.0" xmlns="http://www.w3.org/2000/svg"
 width="50pt" height="50pt" viewBox="0 0 1250.000000 1250.000000"
 preserveAspectRatio="xMidYMid meet">

<g transform="translate(0.000000,1250.000000) scale(0.100000,-0.100000)"
fill="#052EA6" stroke="none">
<path d="M5930 12169 c-1768 -117 -3336 -1176 -4106 -2774 -269 -559 -425
-1142 -474 -1774 -7 -90 -10 -1349 -10 -3728 l0 -3593 4915 0 4915 0 0 3543
c0 2273 -4 3601 -10 3707 -82 1335 -686 2560 -1690 3429 -822 711 -1833 1123
-2925 1191 -183 11 -433 11 -615 -1z m825 -3769 c636 -55 1188 -290 1533 -655
181 -191 300 -424 331 -649 33 -232 -12 -399 -138 -519 -109 -105 -238 -148
-441 -148 -188 0 -302 34 -446 137 -143 101 -264 262 -469 624 -180 318 -241
407 -365 531 -89 90 -118 112 -190 147 -121 60 -193 76 -330 75 -339 -2 -613
-193 -785 -547 -137 -280 -181 -524 -172 -940 11 -492 95 -862 278 -1229 285
-572 769 -908 1364 -946 569 -37 1024 191 1332 666 60 94 112 137 181 152 80
17 148 -8 196 -72 76 -103 -25 -558 -190 -850 -299 -528 -828 -859 -1534 -959
-127 -17 -622 -18 -745 0 -331 48 -609 131 -874 263 -266 132 -472 280 -686
494 -531 529 -802 1251 -755 2009 24 383 100 688 249 1001 298 622 820 1067
1511 1289 205 66 390 102 670 129 81 8 364 6 475 -3z"/>
</g>
</svg>
