<svg width="107" height="19" viewBox="0 0 107 19" fill="none" xmlns="http://www.w3.org/2000/svg">
<g clip-path="url(#clip0)">
<path d="M105.595 7.07591C104.146 5.11022 101.785 4.50483 99.7984 5.60777C98.7038 6.21316 97.9519 7.15679 97.3926 8.27444C97.2975 8.46316 97.207 8.65189 97.1142 8.84061C97.0619 8.82836 97.0095 8.8161 96.9572 8.80385C97.0643 5.89454 97.169 2.98767 97.276 0.0808105C95.9887 1.10042 94.4181 1.24258 92.957 1.34797C93.095 2.27199 93.3354 3.16659 93.3425 4.06365C93.3782 8.35532 93.5234 12.6494 93.1974 16.9362C93.1545 17.5146 93.0831 18.0931 93.0118 18.8186C94.6228 17.9166 96.1576 18.2842 97.721 18.6151C98.711 18.8259 99.7485 18.9436 100.757 18.897C102.792 18.8112 104.532 18.0048 105.747 16.2426C107.477 13.7254 107.406 9.53669 105.595 7.07591ZM102.547 16.5808C102.421 16.8504 102.268 17.1078 102.095 17.348C100.95 18.9313 98.9037 18.897 97.8067 17.272C97.2903 16.5097 97.0714 15.6396 97.0452 14.7279C97.0143 13.4681 96.9405 12.1985 97.0452 10.9485C97.1761 9.37248 97.7662 7.95826 98.918 6.84797C99.1083 6.66659 99.332 6.51463 99.5629 6.38963C100.565 5.84061 101.478 6.05385 102.147 6.99258C102.759 7.85287 103.028 8.85042 103.187 9.87738C103.304 10.6445 103.344 11.4239 103.42 12.2009C103.358 13.7132 103.197 15.196 102.547 16.5808Z" fill="#052EA6"/>
<path d="M90.9664 18.929C89.9527 18.9216 88.8438 19.0295 87.8253 18.4633C87.2447 18.1422 87.0329 17.5564 86.9686 16.9241C86.9115 16.3334 86.8972 15.7402 86.8592 15.0172C86.7116 15.2893 86.6236 15.4559 86.5355 15.6177C85.9525 16.6986 85.2029 17.6226 84.1607 18.2721C81.3218 20.0368 78.0688 18.2598 77.957 14.8603C77.8999 13.1961 77.9498 11.5295 77.9237 9.86279C77.907 8.7819 77.8642 7.70102 77.3906 6.69367C78.1854 6.57112 78.9778 6.5172 79.7298 6.31132C80.477 6.10788 81.1885 5.75249 81.9191 5.46328C81.8738 5.99269 81.7858 6.60543 81.7715 7.22553C81.7049 10 81.6454 12.7746 81.6192 15.5515C81.6145 16.0049 81.7406 16.478 81.8976 16.9069C82.2617 17.8996 83.0399 18.201 83.9822 17.7549C84.6556 17.4412 85.1958 16.9363 85.5551 16.2966C86.0334 15.4437 86.4142 14.5319 86.8306 13.6446C86.8734 13.5515 86.8949 13.4412 86.8925 13.3383C86.8425 11.5393 86.8021 9.74269 86.7164 7.94367C86.695 7.5221 86.5117 7.11033 86.3928 6.64955C87.9229 6.5172 89.4863 6.402 90.8117 5.33337C90.6356 9.87259 90.0574 14.3799 90.9664 18.929Z" fill="#052EA6"/>
<path d="M55.1593 18.3432C55.0546 16.6667 54.9308 14.9927 54.8452 13.3162C54.7928 12.2844 54.8595 11.2402 54.7619 10.2133C54.5525 8.04171 53.5245 6.41671 51.5018 5.59073C49.8146 4.89955 48.0775 4.8971 46.3451 5.42896C45.6646 5.6373 45.0482 5.98779 44.6104 6.59073C44.0916 7.30396 44.1535 8.11279 44.777 8.6422C45.3576 9.1373 46.0548 9.24269 46.802 9.25249C46.7473 8.92406 46.6807 8.6324 46.6569 8.33828C46.526 6.87749 47.3303 5.71818 48.5963 5.5221C49.5386 5.37504 50.4 5.902 50.8331 6.8873C51.3138 7.98289 51.1853 8.7721 50.3263 9.44122C49.9003 9.77455 49.422 10.0613 48.9247 10.2598C47.4993 10.8358 46.0453 11.3407 44.6152 11.9069C43.7228 12.2623 42.8947 12.7427 42.2617 13.5074C40.9577 15.0809 41.3455 17.2868 43.1326 18.228C43.6704 18.5098 44.2749 18.701 44.8674 18.8162C46.4475 19.1201 48.0133 18.8824 49.5576 18.5172C51.4019 18.0785 53.227 17.9584 55.0308 18.701C55.0665 18.7157 55.1141 18.7035 55.1831 18.7035C55.1759 18.576 55.1664 18.4584 55.1593 18.3432ZM51.0306 15.3407C50.7546 17.6128 48.6343 18.9192 46.6426 18.2549C45.5599 17.8947 45.0125 16.9951 45.1434 15.8211C45.2624 14.7672 45.736 13.8922 46.5046 13.228C47.2851 12.554 48.1299 11.9584 48.9627 11.3481C49.7433 10.7746 50.5904 10.2819 51.0973 9.3873C51.1544 9.3971 51.2091 9.4069 51.2662 9.41671C51.1996 11.3922 51.2686 13.3848 51.0306 15.3407Z" fill="#052EA6"/>
<path d="M27.3574 18.1301C27.2812 17.3997 27.1527 16.6693 27.1313 15.9389C27.0742 14.2575 27.0956 12.5761 27.0385 10.8948C26.9695 8.84819 26.3222 7.06387 24.5018 6.00015C22.4577 4.80162 20.2922 4.77711 18.1125 5.60799C17.4724 5.85309 16.9322 6.27466 16.6276 6.93642C16.3563 7.52711 16.4658 8.15456 16.9298 8.58348C17.52 9.13005 18.2434 9.23789 19.0358 9.2526C18.993 9.05897 18.9525 8.91681 18.9287 8.76975C18.7907 7.99279 18.8478 7.23789 19.2595 6.55407C19.7354 5.7624 20.4564 5.40701 21.3464 5.5222C22.3744 5.65211 22.8908 6.36779 23.2097 7.31877C23.5143 8.23054 23.2239 8.92172 22.5291 9.44868C22.0984 9.77711 21.6201 10.059 21.1251 10.2649C20.1637 10.6644 19.1762 10.9928 18.2005 11.3555C17.0607 11.7796 15.9161 12.2011 14.9619 13.0149C14.2289 13.6374 13.784 14.4242 13.7245 15.4095C13.6412 16.8923 14.4717 18.0198 16.0398 18.559C17.7651 19.1521 19.5022 18.9928 21.2369 18.6276C22.5148 18.3604 23.7879 18.0369 25.0991 18.2011C25.8606 18.2967 26.6101 18.4977 27.3978 18.6595C27.3859 18.5075 27.3764 18.3188 27.3574 18.1301ZM23.3286 14.9511C23.2287 16.6472 22.1698 17.9462 20.7111 18.2894C20.2137 18.407 19.6545 18.4193 19.1548 18.3237C17.7437 18.0541 17.0988 16.9242 17.4224 15.4217C17.6627 14.3065 18.329 13.483 19.1738 12.8065C19.8401 12.2722 20.5516 11.7943 21.2465 11.2992C22.0103 10.7575 22.8099 10.26 23.3501 9.33348C23.3858 9.5075 23.4119 9.57613 23.4119 9.64475C23.3905 11.4144 23.4333 13.1864 23.3286 14.9511Z" fill="#052EA6"/>
<path d="M39.1683 17.2453C38.621 17.7551 37.938 18.1864 37.2432 18.4438C35.3061 19.1595 33.3144 19.1717 31.3464 18.5467C30.8277 18.3825 30.3113 18.1031 29.8854 17.7575C28.5528 16.6791 28.8288 14.9757 30.4184 14.3703C30.8301 14.2159 31.287 14.1742 31.7058 14.081C31.6011 14.7208 31.4464 15.2747 31.4345 15.831C31.4131 16.8972 31.82 17.782 32.8004 18.2526C33.8141 18.7404 34.8278 18.6766 35.7511 18.0002C36.5269 17.4315 36.722 16.3972 36.1366 15.6129C35.7369 15.0786 35.2133 14.608 34.6684 14.2232C33.7189 13.5492 32.6909 12.9977 31.7367 12.3359C31.1228 11.9095 30.516 11.4364 30.0258 10.8752C28.8312 9.50507 29.0858 7.41928 30.5231 6.31389C31.5416 5.52958 32.729 5.17909 33.9664 5.13987C35.3347 5.09575 36.7077 5.21095 38.0784 5.24526C38.6852 5.26242 39.2944 5.24772 40.0154 5.24772C39.2278 6.35311 38.5044 7.37517 37.7072 8.49526C37.6501 8.19379 37.612 7.99771 37.5716 7.80164C37.1908 5.93399 35.6441 5.01487 34.033 5.6987C32.9289 6.16683 32.5172 7.37271 33.2335 8.35556C33.6618 8.93889 34.2472 9.43399 34.8374 9.85801C35.9248 10.6423 37.0861 11.3163 38.1784 12.0909C38.6519 12.4266 39.0826 12.8605 39.4396 13.3261C40.37 14.5467 40.2819 16.2085 39.1683 17.2453Z" fill="#052EA6"/>
<path d="M70.9414 18.7427C71.4935 17.0712 71.5078 15.3751 71.5101 13.679C71.5125 10.7207 71.5078 7.76478 71.4935 4.80644C71.4911 4.26478 71.4768 3.72066 71.4031 3.1888C71.3198 2.58586 71.158 1.99517 71.0199 1.35546C72.5239 1.23291 74.0992 1.10301 75.4936 -0.00238037C75.446 0.558894 75.3913 1.02213 75.3699 1.49027C75.2866 3.25742 75.1724 5.02703 75.1462 6.79664C75.1081 9.3187 75.1272 11.8408 75.1367 14.3628C75.1415 15.8359 75.2176 17.3015 75.703 18.7403H70.9414V18.7427Z" fill="#052EA6"/>
<path d="M68.8516 15.8285C68.8731 15.8113 68.904 15.8064 68.9873 15.777C68.9397 15.9167 68.9159 16.0245 68.8707 16.1226C68.3186 17.2868 67.4453 18.1201 66.2626 18.5221C63.8687 19.3334 61.5557 19.0785 59.4926 17.5687C55.4876 14.6446 56.1635 8.13483 60.6895 5.96327C62.893 4.90689 65.1941 4.72307 67.5071 5.58582C67.9831 5.76229 68.4471 6.09562 68.7993 6.47307C69.4204 7.13238 69.2395 7.93385 68.4542 8.37503C67.9474 8.66179 67.1764 8.79905 66.6219 8.69611C66.6648 8.47797 66.7147 8.25983 66.7457 8.0417C66.9765 6.45101 65.9271 5.34072 64.3684 5.51719C63.2286 5.64464 62.3362 6.23287 61.7365 7.19121C60.2493 9.56621 60.0708 12.1005 61.2154 14.652C62.0911 16.5981 64.0377 17.5 66.1936 17.1863C67.1359 17.049 67.9569 16.6716 68.6541 16.0098C68.7184 15.9437 68.7826 15.8848 68.8516 15.8285Z" fill="#052EA6"/>
<path d="M9.33521 17.1865C10.406 17.0345 11.296 16.5443 12.1194 15.8139C12.0861 15.9144 12.0646 16.0222 12.0194 16.1178C11.4602 17.2967 10.575 18.135 9.37329 18.5369C7.01032 19.3262 4.72587 19.0713 2.67939 17.6007C-1.3636 14.6963 -0.711579 8.14723 3.82875 5.96341C6.02991 4.90459 8.33339 4.71831 10.6464 5.58596C11.1318 5.76733 11.6078 6.11537 11.9647 6.50263C12.5501 7.14233 12.3811 7.91929 11.6387 8.34576C11.0652 8.67665 10.437 8.77469 9.76117 8.73302C9.81352 8.44871 9.87301 8.20361 9.90394 7.95606C10.0824 6.4438 9.08535 5.38498 7.6076 5.50753C6.41065 5.60802 5.48259 6.21586 4.85913 7.22322C3.40042 9.57371 3.22671 12.0811 4.33561 14.608C5.2018 16.5737 7.16023 17.4928 9.33521 17.1865Z" fill="#052EA6"/>
</g>
<defs>
<clipPath id="clip0">
<rect width="107" height="19" fill="white"/>
</clipPath>
</defs>
</svg>
