<svg width="131" height="23" viewBox="0 0 131 23" fill="none" xmlns="http://www.w3.org/2000/svg">
<path d="M129.28 8.56565C127.505 6.18614 124.615 5.45329 122.183 6.78843C120.842 7.52127 119.922 8.66356 119.237 10.0165C119.121 10.245 119.01 10.4734 118.896 10.7019C118.832 10.687 118.768 10.6722 118.704 10.6574C118.835 7.13557 118.963 3.61673 119.094 0.0979004C117.518 1.33216 115.595 1.50425 113.807 1.63183C113.976 2.75038 114.27 3.83332 114.279 4.91924C114.322 10.1144 114.5 15.3126 114.101 20.5018C114.048 21.202 113.961 21.9022 113.874 22.7804C115.846 21.6886 117.725 22.1336 119.639 22.5342C120.851 22.7893 122.121 22.9317 123.357 22.8754C125.848 22.7715 127.977 21.7954 129.466 19.6621C131.584 16.6151 131.497 11.5445 129.28 8.56565ZM125.548 20.0716C125.393 20.398 125.207 20.7095 124.994 21.0002C123.593 22.9169 121.087 22.8754 119.744 20.9083C119.112 19.9855 118.844 18.9323 118.812 17.8286C118.774 16.3035 118.684 14.7666 118.812 13.2535C118.972 11.3457 119.695 9.63376 121.105 8.28972C121.338 8.07017 121.612 7.88621 121.894 7.7349C123.121 7.07029 124.239 7.32842 125.058 8.46477C125.807 9.50618 126.136 10.7137 126.331 11.9569C126.474 12.8856 126.523 13.8291 126.617 14.7696C126.541 16.6002 126.343 18.3952 125.548 20.0716Z" fill="#052EA6"/>
<path d="M111.371 22.9139C110.13 22.905 108.772 23.0355 107.525 22.3501C106.814 21.9615 106.555 21.2524 106.476 20.4869C106.406 19.7718 106.389 19.0538 106.342 18.1786C106.162 18.5079 106.054 18.7097 105.946 18.9055C105.232 20.2139 104.315 21.3325 103.039 22.1187C99.5629 24.2549 95.5803 22.1039 95.4434 17.9887C95.3735 15.9741 95.4346 13.9566 95.4026 11.939C95.3822 10.6306 95.3298 9.32215 94.75 8.10273C95.7231 7.95438 96.6932 7.8891 97.6138 7.63988C98.5286 7.39362 99.3997 6.96341 100.294 6.6133C100.239 7.25417 100.131 7.99592 100.114 8.74656C100.032 12.1052 99.9591 15.4638 99.9271 18.8254C99.9212 19.3743 100.076 19.9469 100.268 20.4661C100.714 21.6677 101.666 22.0327 102.82 21.4927C103.645 21.1129 104.306 20.5017 104.746 19.7273C105.331 18.6948 105.798 17.5911 106.307 16.5171C106.36 16.4043 106.386 16.2708 106.383 16.1462C106.322 13.9684 106.272 11.7936 106.168 9.61588C106.141 9.10556 105.917 8.60711 105.771 8.04932C107.645 7.8891 109.559 7.74966 111.181 6.45605C110.966 11.9509 110.258 17.4072 111.371 22.9139Z" fill="#052EA6"/>
<path d="M67.5319 22.2049C67.4037 20.1754 67.2522 18.149 67.1473 16.1196C67.0832 14.8705 67.1648 13.6066 67.0454 12.3634C66.789 9.73465 65.5304 7.76755 63.054 6.76768C60.9884 5.93099 58.8617 5.92802 56.7407 6.57186C55.9075 6.82405 55.1529 7.24833 54.6169 7.9782C53.9818 8.84159 54.0575 9.82069 54.8208 10.4616C55.5317 11.0609 56.3853 11.1885 57.3001 11.2003C57.2331 10.8028 57.1515 10.4497 57.1224 10.0937C56.9622 8.32534 57.9469 6.92196 59.4968 6.6846C60.6505 6.50658 61.7051 7.14448 62.2354 8.33721C62.8239 9.66344 62.6665 10.6188 61.6148 11.4288C61.0933 11.8323 60.5077 12.1794 59.8988 12.4198C58.1537 13.117 56.3736 13.7282 54.6227 14.4136C53.5302 14.8438 52.5163 15.4253 51.7414 16.351C50.1448 18.2558 50.6197 20.9261 52.8077 22.0654C53.4661 22.4066 54.2061 22.638 54.9315 22.7775C56.866 23.1454 58.783 22.8576 60.6738 22.4155C62.9317 21.8844 65.1662 21.739 67.3746 22.638C67.4183 22.6558 67.4765 22.641 67.561 22.641C67.5523 22.4867 67.5406 22.3443 67.5319 22.2049ZM62.4772 18.5703C62.1392 21.3207 59.5434 22.9021 57.1049 22.098C55.7793 21.6619 55.1092 20.573 55.2695 19.1518C55.4151 17.876 55.9949 16.8168 56.9359 16.0128C57.8915 15.1969 58.9258 14.4759 59.9454 13.7371C60.901 13.0428 61.9382 12.4465 62.5588 11.3635C62.6287 11.3754 62.6957 11.3873 62.7656 11.3991C62.684 13.7905 62.7685 16.2027 62.4772 18.5703Z" fill="#052EA6"/>
<path d="M33.4946 21.9469C33.4014 21.0628 33.244 20.1786 33.2178 19.2944C33.1479 17.2591 33.1741 15.2237 33.1042 13.1884C33.0197 10.711 32.2273 8.55101 29.9985 7.26334C27.496 5.81248 24.8448 5.78281 22.1761 6.78862C21.3924 7.08532 20.7311 7.59564 20.3582 8.39672C20.0261 9.11176 20.1601 9.87131 20.7282 10.3905C21.4507 11.0522 22.3364 11.1827 23.3065 11.2005C23.2541 10.9661 23.2046 10.794 23.1754 10.616C23.0064 9.67549 23.0764 8.76166 23.5804 7.93387C24.1631 6.97554 25.0458 6.54533 26.1354 6.68478C27.394 6.84203 28.0262 7.70838 28.4166 8.85957C28.7895 9.96329 28.4341 10.8 27.5834 11.4379C27.056 11.8354 26.4704 12.1767 25.8645 12.4259C24.6875 12.9095 23.4784 13.3071 22.2839 13.7462C20.8884 14.2595 19.4871 14.7698 18.3188 15.7548C17.4215 16.5084 16.8767 17.4608 16.8039 18.6536C16.7019 20.4486 17.7187 21.8134 19.6386 22.4661C21.7508 23.1841 23.8775 22.9913 26.0014 22.5492C27.5659 22.2258 29.1245 21.8342 30.7298 22.033C31.6621 22.1487 32.5798 22.392 33.5441 22.5878C33.5296 22.4038 33.5179 22.1754 33.4946 21.9469ZM28.5623 18.0987C28.4399 20.1519 27.1434 21.7244 25.3575 22.1398C24.7486 22.2822 24.064 22.297 23.4522 22.1813C21.7246 21.8549 20.935 20.4872 21.3313 18.6684C21.6255 17.3184 22.4412 16.3215 23.4755 15.5026C24.2912 14.8558 25.1623 14.2773 26.013 13.6779C26.9482 13.0222 27.9271 12.4199 28.5885 11.2984C28.6322 11.5091 28.6642 11.5922 28.6642 11.6752C28.638 13.8174 28.6904 15.9625 28.5623 18.0987Z" fill="#052EA6"/>
<path d="M47.9529 20.8759C47.2828 21.493 46.4466 22.0152 45.5959 22.3267C43.2244 23.1931 40.7859 23.2079 38.3766 22.4513C37.7415 22.2525 37.1093 21.9143 36.5878 21.496C34.9563 20.1905 35.2942 18.1285 37.2404 17.3956C37.7444 17.2087 38.3038 17.1583 38.8165 17.0455C38.6883 17.8199 38.499 18.4904 38.4844 19.1639C38.4582 20.4546 38.9564 21.5256 40.1567 22.0953C41.3978 22.6857 42.6389 22.6086 43.7692 21.7897C44.719 21.1014 44.9579 19.8493 44.2412 18.8999C43.7518 18.2531 43.1108 17.6834 42.4437 17.2176C41.2812 16.4017 40.0226 15.7341 38.8544 14.933C38.1027 14.4168 37.3598 13.8441 36.7597 13.1647C35.2972 11.5062 35.6089 8.98127 37.3686 7.64316C38.6155 6.69373 40.0693 6.26945 41.5842 6.22198C43.2594 6.16857 44.9404 6.30802 46.6185 6.34956C47.3614 6.37033 48.1073 6.35253 48.99 6.35253C48.0257 7.69063 47.14 8.92786 46.164 10.2838C46.0941 9.91883 46.0475 9.68147 45.998 9.44411C45.5318 7.18328 43.6381 6.07066 41.6658 6.89845C40.314 7.46514 39.81 8.92489 40.6869 10.1147C41.2113 10.8208 41.928 11.4201 42.6505 11.9334C43.9819 12.8828 45.4037 13.6988 46.7409 14.6363C47.3207 15.0428 47.848 15.568 48.285 16.1317C49.4241 17.6092 49.3163 19.6208 47.9529 20.8759Z" fill="#052EA6"/>
<path d="M86.8535 22.6885C87.5294 20.665 87.5469 18.6119 87.5498 16.5587C87.5527 12.9776 87.5469 9.39942 87.5294 5.81828C87.5265 5.16258 87.509 4.50391 87.4187 3.86007C87.3167 3.1302 87.1186 2.41516 86.9497 1.64078C88.7909 1.49243 90.7196 1.33518 92.4268 -0.00292969C92.3685 0.676508 92.3015 1.23727 92.2753 1.80396C92.1733 3.94315 92.0335 6.08531 92.0015 8.22746C91.9548 11.2805 91.9782 14.3335 91.9898 17.3865C91.9956 19.1697 92.0889 20.9439 92.6832 22.6855H86.8535V22.6885Z" fill="#052EA6"/>
<path d="M84.2948 19.1608C84.321 19.1401 84.3589 19.1341 84.4608 19.0985C84.4026 19.2677 84.3734 19.3982 84.3181 19.5169C83.6422 20.9262 82.573 21.935 81.125 22.4215C78.1941 23.4036 75.3623 23.095 72.8364 21.2674C67.9332 17.7278 68.7606 9.84751 74.3019 7.21877C76.9997 5.94 79.8169 5.71748 82.6487 6.76185C83.2314 6.97548 83.7995 7.37898 84.2307 7.8359C84.9911 8.63402 84.7696 9.60422 83.8082 10.1383C83.1877 10.4854 82.2437 10.6516 81.5649 10.5269C81.6174 10.2629 81.6785 9.99882 81.7164 9.73476C81.999 7.8092 80.7142 6.46516 78.806 6.67878C77.4104 6.83306 76.3179 7.54514 75.5838 8.70522C73.7629 11.5802 73.5444 14.6481 74.9457 17.7367C76.0179 20.0925 78.401 21.1843 81.0405 20.8045C82.1942 20.6384 83.1993 20.1815 84.053 19.3804C84.1316 19.3003 84.2103 19.2291 84.2948 19.1608Z" fill="#052EA6"/>
<path d="M11.4291 20.8046C12.7401 20.6206 13.8297 20.0272 14.8377 19.1431C14.797 19.2647 14.7707 19.3952 14.7154 19.511C14.0307 20.9381 12.947 21.9528 11.4757 22.4394C8.58272 23.3947 5.78588 23.0862 3.28038 21.306C-1.66945 17.7901 -0.871185 9.86235 4.68754 7.21878C7.38241 5.93704 10.2026 5.71155 13.0344 6.76186C13.6287 6.98142 14.2114 7.40273 14.6484 7.87151C15.3651 8.64589 15.1582 9.58642 14.2492 10.1027C13.5471 10.5032 12.778 10.6219 11.9506 10.5715C12.0147 10.2273 12.0875 9.93059 12.1254 9.63093C12.3439 7.8003 11.1232 6.51857 9.31398 6.66692C7.84855 6.78856 6.71234 7.52437 5.94903 8.7438C4.16313 11.5891 3.95045 14.6243 5.30809 17.6833C6.36856 20.0628 8.76627 21.1754 11.4291 20.8046Z" fill="#052EA6"/>
</svg>
