<svg width="99" height="17" viewBox="0 0 99 17" fill="none" xmlns="http://www.w3.org/2000/svg">
<g clip-path="url(#clip0)">
<path d="M98.5268 8.07956C97.554 5.76352 95.1271 4.63209 92.7452 5.45867C92.0878 5.68782 91.5102 6.14816 90.8712 6.51439V6.06632C90.8794 4.31701 90.8917 2.56771 90.8897 0.818398C90.8876 0.145272 90.6193 -0.126842 90.0623 0.0532034C88.8928 0.429663 87.7296 0.830674 86.5929 1.29306C85.9334 1.56313 85.8822 2.08281 86.427 2.55338C86.9759 3.026 87.1786 3.59274 87.1622 4.29655C87.0619 8.22483 87.3855 12.1592 86.9759 16.0814C86.9226 16.601 87.1807 16.867 87.6968 16.7893C88.0552 16.7361 88.4279 16.597 88.7372 16.4067C89.5195 15.932 90.2343 15.9341 91.0597 16.3801C92.9664 17.4051 95.1639 17.1064 96.8085 15.6926C98.8176 13.974 99.5815 10.5859 98.5268 8.07956ZM95.0902 14.0456C94.5495 15.4328 93.1015 15.7233 91.9833 14.729C91.3218 14.1418 90.9695 13.3705 90.904 12.5214C90.8241 11.482 90.82 10.4324 90.8835 9.39308C90.9102 8.95728 91.1231 8.4908 91.373 8.11639C92.0509 7.09545 93.3391 7.01156 94.1972 7.89133C94.8137 8.52558 95.1025 9.32761 95.2704 10.1726C95.3872 10.7557 95.4322 11.3511 95.5346 12.1306C95.4158 12.6666 95.3441 13.3909 95.0902 14.0456Z" fill="#052EA6"/>
<path d="M85.3174 15.7315C84.2811 16.4681 83.0912 16.8323 81.8316 16.9468C81.3217 16.9919 81.0104 16.7238 80.8854 16.2246C80.8035 15.8952 80.7748 15.5494 80.7093 15.1136C80.0826 15.8604 79.3801 16.3842 78.5322 16.6952C76.0398 17.6016 73.6722 16.2614 73.3118 13.6405C73.1275 12.3127 73.15 10.9562 73.1418 9.61202C73.1377 8.83046 72.9657 8.18803 72.3349 7.66835C71.8823 7.29393 71.9314 6.76607 72.468 6.54715C73.6579 6.06226 74.8744 5.62851 76.0992 5.23978C76.6153 5.07815 76.8733 5.36458 76.8795 5.97837C76.8877 6.93589 76.8692 7.89341 76.8692 8.85092C76.8672 10.0478 76.861 11.2447 76.8836 12.4396C76.8918 12.8099 76.9409 13.1904 77.0433 13.5444C77.3321 14.5633 78.3274 14.95 79.249 14.4119C79.97 13.9904 80.4123 13.3132 80.4881 12.5214C80.6028 11.3204 80.6192 10.1051 80.5721 8.90002C80.5577 8.53993 80.2464 8.13688 79.972 7.85044C79.331 7.18754 79.3453 6.7538 80.2034 6.39984C81.2131 5.98247 82.2494 5.62647 83.2939 5.29502C84.0763 5.04541 84.3589 5.27865 84.3568 6.09704C84.3527 8.23713 84.3384 10.3752 84.3282 12.5153C84.3282 12.6789 84.3323 12.8426 84.3323 13.0083C84.3282 13.7122 84.6006 14.2359 85.2436 14.5837C85.8253 14.9029 85.8642 15.3448 85.3174 15.7315Z" fill="#052EA6"/>
<path d="M25.3022 14.7596C24.9377 14.731 24.7144 14.5387 24.5793 14.2379C24.4462 13.9413 24.3397 13.6262 24.2413 13.3152C23.7007 11.5597 23.2009 9.78792 22.6132 8.04885C22.2281 6.90719 21.5011 6.00492 20.3357 5.5282C18.3205 4.70163 15.3263 5.46887 13.9684 7.16703C13.8476 7.31843 13.7083 7.48211 13.6694 7.66011C13.6305 7.83811 13.6448 8.0959 13.7513 8.22071C13.8373 8.31891 14.1036 8.30868 14.2756 8.27595C14.4476 8.24526 14.5931 8.10613 14.763 8.04885C15.4266 7.82788 16.082 7.52303 16.766 7.42073C18.1996 7.21 19.3752 8.21048 19.5391 9.71018C19.2523 9.69176 18.9738 9.6713 18.6953 9.65494C17.0466 9.56491 15.445 9.7245 14.0421 10.6943C12.9567 11.4452 12.4365 12.5091 12.5532 13.8185C12.6761 15.175 13.481 16.0609 14.72 16.5478C16.1864 17.1248 17.6713 17.0655 19.1028 16.4496C19.7541 16.1693 20.3378 15.7356 20.9706 15.3612C21.0546 15.5207 21.1611 15.7335 21.2819 15.932C21.5932 16.4476 22.0438 16.7872 22.6398 16.8793C23.6331 17.0348 24.5199 16.7586 25.2715 16.1079C25.4763 15.932 25.6361 15.666 25.7303 15.4103C25.8675 15.0399 25.6955 14.7924 25.3022 14.7596ZM19.7009 14.7105C19.2974 14.9151 18.8366 15.0133 18.4024 15.1586C16.9893 15.085 15.9919 14.1397 16.0287 12.8548C16.0513 12.1326 16.3707 11.5413 17.0384 11.2938C17.5832 11.0912 18.1996 11.0135 18.7854 11.0114C19.4612 11.0053 19.9302 11.3817 20.0941 12.0815C20.1699 12.415 20.3153 12.7321 20.4054 13.0615C20.6081 13.8083 20.3972 14.3586 19.7009 14.7105Z" fill="#052EA6"/>
<path d="M51.6422 14.78C51.1056 14.7411 50.866 14.4137 50.7268 13.982C50.4195 13.0143 50.1472 12.0343 49.842 11.0665C49.4856 9.94124 49.1764 8.79754 48.7279 7.70704C48.138 6.27281 47.03 5.41146 45.4531 5.2396C44.214 5.10456 43.0261 5.29688 41.912 5.86567C41.1542 6.25235 40.4579 6.73111 40.0278 7.48198C39.9172 7.67431 39.9889 7.97302 39.9766 8.22058C40.2121 8.22058 40.4681 8.27991 40.6791 8.2083C41.2587 8.00985 41.8014 7.69886 42.3892 7.53313C44.1485 7.03187 45.4428 7.84617 45.8319 9.72437C45.494 9.69777 45.1991 9.66913 44.9021 9.65481C43.2678 9.57502 41.6806 9.73869 40.2961 10.7064C39.1635 11.4962 38.6659 12.6112 38.8379 13.9739C38.9997 15.2526 39.7943 16.0771 40.9576 16.5436C42.4384 17.1349 43.9355 17.0756 45.3834 16.4474C46.0306 16.1671 46.6122 15.7375 47.2369 15.3672C47.325 15.5308 47.4294 15.7457 47.5523 15.9482C47.8636 16.4618 48.3203 16.7973 48.9142 16.8873C49.8912 17.0387 50.7759 16.7748 51.505 16.1303C51.7528 15.9134 51.8982 15.5472 51.9965 15.2239C52.0314 15.1114 51.7794 14.7902 51.6422 14.78ZM46.4996 14.2378C46.0552 14.9436 44.8653 15.2465 43.8904 14.9764C42.9852 14.7268 42.379 14.0271 42.2909 13.1289C42.2008 12.202 42.7046 11.4266 43.6201 11.1402C43.96 11.0317 44.3225 10.999 44.6748 10.9315C45.6968 10.9724 46.09 11.2527 46.3952 12.202C46.5098 12.558 46.6757 12.912 46.7003 13.2762C46.7249 13.5954 46.6675 13.9759 46.4996 14.2378Z" fill="#052EA6"/>
<path d="M36.207 15.932C35.2936 16.646 34.2388 16.9918 33.1042 16.9591C32.1089 16.9304 31.1115 16.7524 30.1223 16.5949C29.7065 16.5274 29.3543 16.466 28.9979 16.7893C28.6354 17.1166 28.1521 17.0573 27.9125 16.6379C27.3103 15.5821 26.8393 14.4589 26.6734 13.2477C26.5853 12.5991 27.1342 12.2636 27.6995 12.6032C28.0804 12.8323 28.404 13.1577 28.7624 13.4298C29.4669 13.9617 30.1346 14.5592 30.8965 14.9868C31.4085 15.2752 32.0495 15.3632 32.6475 15.4676C33.0571 15.5371 33.4278 15.3489 33.5978 14.9377C33.7801 14.4896 33.6367 14.0702 33.2558 13.8267C32.5267 13.3623 31.771 12.9285 30.9968 12.5439C30.0035 12.0487 28.959 11.6498 28.1296 10.8825C26.5116 9.38693 26.7717 6.87856 28.7133 5.83512C29.3379 5.49753 30.0998 5.40546 30.8022 5.21928C30.9436 5.18041 31.1013 5.21314 31.2508 5.21314C31.2528 5.19268 31.2569 5.17427 31.259 5.15381C32.0577 5.27043 32.8564 5.41365 33.6613 5.49344C33.9706 5.52208 34.3167 5.4607 34.6034 5.34408C35.142 5.12107 35.4841 5.13744 35.7585 5.6387C36.1497 6.35684 36.4794 7.10976 36.803 7.86268C36.93 8.1573 36.9402 8.48875 36.6432 8.72199C36.3319 8.96546 36.0124 8.87544 35.7196 8.68925C35.226 8.37622 34.7693 7.99771 34.2593 7.72151C33.6162 7.37574 32.9486 7.06475 32.2645 6.81309C31.9778 6.7067 31.603 6.72921 31.2958 6.80491C30.5135 6.99928 30.3169 7.78493 30.9272 8.30665C31.2979 8.62378 31.7382 8.87134 32.1744 9.0964C33.0551 9.54651 33.9665 9.93934 34.841 10.3976C35.3305 10.6534 35.8015 10.9582 36.2377 11.2958C38.124 12.7546 37.4338 14.9724 36.207 15.932Z" fill="#052EA6"/>
<path d="M11.2191 13.4972C11.1147 13.8818 10.9693 14.2726 10.7501 14.602C9.92274 15.8603 8.70211 16.5559 7.24391 16.8341C5.45188 17.1758 3.72743 16.9958 2.20779 15.9012C0.126988 14.4015 -0.583681 11.4348 0.50997 8.94895C1.53399 6.61859 3.72334 5.19459 6.27314 5.20687C7.67605 5.21096 8.94788 5.57719 9.97804 6.56744C10.7911 7.349 11.1884 8.30243 11.0819 9.43794C11.0082 10.2277 10.4962 10.7781 9.73432 10.9049C8.86186 11.0522 8.22287 10.7515 7.87266 9.99854C7.73544 9.70187 7.68014 9.36838 7.54088 9.07171C7.30535 8.56022 7.1026 8.00576 6.75853 7.57201C5.94546 6.54698 4.53436 6.72702 3.94657 7.89732C3.78683 8.2124 3.67214 8.57045 3.63118 8.91826C3.48781 10.1152 3.62298 11.2793 4.19439 12.3637C5.19588 14.2685 7.50401 14.9232 9.36568 13.8245C9.75071 13.5954 10.0845 13.2823 10.4675 13.0491C10.6232 12.955 10.9038 12.8854 11.0266 12.9632C11.1577 13.045 11.2622 13.3376 11.2191 13.4972Z" fill="#052EA6"/>
<path d="M63.6924 13.4625C63.6063 13.8349 63.4712 14.2134 63.2684 14.5326C62.4492 15.8195 61.2245 16.5376 59.7519 16.824C57.9456 17.178 56.2088 17.002 54.6769 15.8931C52.5695 14.3668 51.8609 11.3633 53.0303 8.85703C54.1567 6.44687 56.1228 5.29703 58.3511 5.19678C60.1759 5.20905 61.46 5.58551 62.4922 6.60236C63.2438 7.343 63.6248 8.24323 63.5715 9.31123C63.5285 10.1501 63.0227 10.7536 62.2424 10.8969C61.3187 11.0667 60.6613 10.7373 60.3049 9.90456C60.1657 9.57516 60.1063 9.21098 59.9506 8.88976C59.7089 8.39668 59.4878 7.86677 59.1334 7.46372C58.3675 6.59418 57.0956 6.74967 56.5038 7.74606C56.3256 8.04682 56.2027 8.40282 56.1392 8.74859C55.9324 9.89433 56.0655 11.0176 56.5324 12.0856C57.4827 14.2543 60.0018 15.0072 62.0007 13.7224C62.3284 13.5116 62.6151 13.2395 62.9469 13.0349C63.0943 12.9449 63.3626 12.8671 63.4691 12.9387C63.6063 13.0349 63.7292 13.3091 63.6924 13.4625Z" fill="#052EA6"/>
<path d="M70.6273 16.329C70.5188 16.5274 70.1809 16.7054 69.9433 16.7115C68.4585 16.7463 66.9695 16.7504 65.4847 16.7075C65.2226 16.6993 64.8765 16.4906 64.7351 16.2696C64.5344 15.9566 64.688 15.574 64.9911 15.3571C65.6977 14.8518 65.8513 14.1357 65.8513 13.3439C65.8534 12.3434 65.8452 11.3409 65.8431 10.3383C65.8349 8.30464 65.8186 6.27094 65.8267 4.2352C65.8288 3.56207 65.626 3.02398 65.1038 2.57796C64.5222 2.08284 64.5652 1.57953 65.2553 1.29514C66.39 0.830699 67.5573 0.431734 68.7247 0.049137C69.2183 -0.112495 69.503 0.1187 69.5603 0.636332C69.5849 0.871619 69.5706 1.11509 69.5706 1.35447V7.27756H69.548C69.548 9.25193 69.5562 11.2263 69.5439 13.2007C69.5398 14.0538 69.6545 14.8354 70.4123 15.3939C70.7195 15.6231 70.7953 16.0241 70.6273 16.329Z" fill="#052EA6"/>
</g>
<defs>
<clipPath id="clip0">
<rect width="99" height="17" fill="white"/>
</clipPath>
</defs>
</svg>
