<svg width="18" height="18" viewBox="0 0 18 18" fill="none" xmlns="http://www.w3.org/2000/svg">
<path d="M9 0C4.03756 0 0 4.03756 0 9C0 13.9624 4.03756 18 9 18C13.9624 18 18 13.9624 18 9C18 4.03756 13.9624 0 9 0ZM9 1.38462C13.2133 1.38462 16.6154 4.78666 16.6154 9C16.6154 13.2133 13.2133 16.6154 9 16.6154C4.78666 16.6154 1.38462 13.2133 1.38462 9C1.38462 4.78666 4.78666 1.38462 9 1.38462ZM8.30769 4.84615V8.30769H4.84615V9.69231H8.30769V13.1538H9.69231V9.69231H13.1538V8.30769H9.69231V4.84615H8.30769Z" fill="#052EA6"/>
</svg>
