<svg width="53" height="54" viewBox="0 0 53 54" fill="none" xmlns="http://www.w3.org/2000/svg">
<path d="M41.0002 34.1921C42.0041 37.5961 41.2432 41.4528 39.1991 44.3977C37.9177 46.2438 36.2028 47.5881 34.2168 48.6513C31.3168 50.2036 27.7269 51.6299 24.4234 51.9645C21.5434 52.2562 18.6829 51.6209 15.9969 50.6837C12.6221 49.5062 9.4462 47.7744 7.16086 45.013C3.06294 40.0612 1.35634 33.2845 3.22642 27.084C4.30233 23.5167 6.04054 20.0987 8.02952 16.9396C10.5287 12.97 13.6007 9.18687 17.4362 6.39126C22.4573 2.73155 28.6068 1.24081 34.5813 3.21904C40.6465 5.22729 45.655 10.1746 48.4359 15.768C49.6846 18.2799 50.4772 21.1331 50.717 23.9291C50.7953 24.8418 50.7812 25.8809 50.5662 26.7913C50.278 28.0119 50.3544 27.0938 49.9754 28.0859" stroke="#2F3C7E" stroke-width="3" stroke-linecap="round" stroke-linejoin="round"/>
</svg>
