<svg width="55" height="54" viewBox="0 0 55 54" fill="none" xmlns="http://www.w3.org/2000/svg">
<path d="M22.1522 9.76668C17.4518 9.9846 13.3703 12.8961 10.2677 16.0205C6.28371 20.0325 3.65521 24.8494 2.55007 30.2363C1.88485 33.4789 1.5781 37.3059 3.07828 40.4022C4.22415 42.7673 6.2652 44.4753 8.52168 45.9122C12.2737 48.3013 16.4975 50.0709 20.9344 50.9538C28.1805 52.3959 38.0369 53.0866 43.9258 47.9647C49.4426 43.1664 51.4329 35.5461 52.3697 28.8312C52.9156 24.9187 53.3766 20.6462 52.5458 16.7368C51.6878 12.6994 49.3524 8.88255 46.0827 6.13698C41.5095 2.29695 33.9325 1.18265 28.0798 2.57615C22.5902 3.88318 18.1719 7.91772 13.9651 11.2544" stroke="#2F3C7E" stroke-width="3" stroke-linecap="round" stroke-linejoin="round"/>
</svg>
