<svg width="52" height="58" viewBox="0 0 52 58" fill="none" xmlns="http://www.w3.org/2000/svg">
<path d="M19.2333 14.3941C14.1415 14.6727 10.0586 17.3552 6.81987 21.3225C2.64188 26.4403 1.28637 33.2371 2.34289 39.7407C3.61184 47.5518 9.02116 52.2837 16.2147 54.643C22.642 56.7509 30.9389 56.7802 36.2368 52.0003C38.9441 49.5577 40.9297 46.2803 42.7035 43.1187C45.2645 38.5539 47.6311 33.6928 48.8989 28.5725C50.2231 23.2245 51.0187 16.8367 47.2709 12.2915C42.2187 6.16414 33.4046 3.0803 25.8357 2.26084C22.2595 1.87366 18.3191 1.81365 14.8242 2.81235C12.0309 3.61053 9.96488 5.31998 7.63386 6.94869" stroke="#2F3C7E" stroke-width="3" stroke-linecap="round" stroke-linejoin="round"/>
</svg>
