<svg width="156" height="156" viewBox="0 0 156 156" fill="none" xmlns="http://www.w3.org/2000/svg">
<path opacity="0.3" fill-rule="evenodd" clip-rule="evenodd" d="M115.241 55.1631C102.437 34.6722 75.4459 28.4408 54.955 41.245C34.464 54.0492 28.2327 81.0402 41.0368 101.531C53.841 122.022 80.8319 128.253 101.323 115.449C121.814 102.645 128.045 75.6541 115.241 55.1631ZM48.331 30.6444C74.6764 14.1819 109.379 22.1937 125.842 48.5391C142.304 74.8848 134.292 109.587 107.947 126.05C81.6012 142.512 46.8988 134.501 30.4362 108.155C13.9738 81.8096 21.9853 47.107 48.331 30.6444Z" fill="#2F3C7E"/>
<path fill-rule="evenodd" clip-rule="evenodd" d="M120.767 88.1895C126.203 64.6467 111.523 41.1548 87.9803 35.7195C84.617 34.943 82.5199 31.587 83.2964 28.2237C84.0729 24.8604 87.4289 22.7633 90.7922 23.5398C121.062 30.5282 139.935 60.7316 132.947 91.0019C132.171 94.3651 128.815 96.4621 125.451 95.6858C122.088 94.9089 119.991 91.5532 120.767 88.1895Z" fill="#2F3C7E"/>
</svg>
