<svg width="16" height="14" viewBox="0 0 16 14" fill="none" xmlns="http://www.w3.org/2000/svg">
<path d="M15.899 1.59814C15.3149 1.86028 14.6863 2.03711 14.0267 2.11624C14.7001 1.70919 15.2165 1.06442 15.46 0.295254C14.8301 0.672672 14.1328 0.946535 13.39 1.09438C12.7955 0.454818 11.9482 0.0549316 11.0106 0.0549316C9.21052 0.0549316 7.75103 1.52846 7.75103 3.34618C7.75103 3.60376 7.77973 3.85483 7.83553 4.09613C5.1262 3.95871 2.72393 2.64866 1.11608 0.657366C0.835466 1.14322 0.674841 1.70853 0.674841 2.31227C0.674841 3.45397 1.25025 4.4615 2.12498 5.05156C1.59085 5.0343 1.08801 4.88613 0.648393 4.63962C0.648071 4.6533 0.648071 4.6673 0.648071 4.68131C0.648071 6.27564 1.7718 7.60556 3.26322 7.9084C2.9897 7.9833 2.70168 8.02368 2.4043 8.02368C2.194 8.02368 1.98983 8.00317 1.79083 7.96442C2.20593 9.27186 3.40965 10.2237 4.83592 10.2501C3.72026 11.1329 2.31495 11.6591 0.787408 11.6591C0.524538 11.6591 0.264894 11.6435 0.00976562 11.6129C1.45281 12.5472 3.16613 13.0916 5.00686 13.0916C11.0032 13.0916 14.2818 8.07676 14.2818 3.72751C14.2818 3.58487 14.2789 3.44257 14.2728 3.30124C14.9095 2.83818 15.4623 2.25822 15.899 1.59814Z" fill="#052EA6"/>
</svg>
